SN Abbatia Beta-Bold.ufo
<glyph name="exclam" format="2">
  <advance width="290"/>
  <unicode hex="0021"/>
  <outline>
    <contour>
      <point x="103" y="233" type="line"/>
      <point x="183" y="233" type="line"/>
      <point x="240" y="720" type="line"/>
      <point x="208" y="750" type="line"/>
      <point x="56" y="726" type="line"/>
      <point x="80" y="376" type="line"/>
    </contour>
    <component base="period" xOffset="-10"/>
  </outline>
</glyph>
<glyph name="ampersand" format="2">
  <advance width="591"/>
  <unicode hex="0026"/>
  <outline>
    <contour>
      <point x="571" y="393" type="line"/>
      <point x="246" y="393" type="line"/>
      <point x="234" y="425"/>
      <point x="230" y="455"/>
      <point x="230" y="483" type="curve" smooth="yes"/>
      <point x="230" y="503"/>
      <point x="230" y="518"/>
      <point x="233" y="536" type="curve"/>
      <point x="256" y="541"/>
      <point x="286" y="546"/>
      <point x="321" y="546" type="curve" smooth="yes"/>
      <point x="360" y="546"/>
      <point x="401" y="542"/>
      <point x="446" y="534" type="curve"/>
      <point x="466" y="668" type="line"/>
      <point x="416" y="683"/>
      <point x="370" y="690"/>
      <point x="306" y="690" type="curve" smooth="yes"/>
      <point x="248" y="690"/>
      <point x="192" y="680"/>
      <point x="152" y="667" type="curve"/>
      <point x="68" y="575" type="line"/>
      <point x="67" y="565"/>
      <point x="67" y="548"/>
      <point x="67" y="534" type="curve" smooth="yes"/>
      <point x="67" y="486"/>
      <point x="74" y="442"/>
      <point x="82" y="414" type="curve"/>
      <point x="176" y="365" type="line"/>
      <point x="100" y="339"/>
      <point x="40" y="281"/>
      <point x="40" y="186" type="curve" smooth="yes"/>
      <point x="40" y="53"/>
      <point x="137" y="-9"/>
      <point x="262" y="-9" type="curve" smooth="yes"/>
      <point x="306" y="-9"/>
      <point x="368" y="-4"/>
      <point x="405" y="3" type="curve"/>
      <point x="508" y="108" type="line"/>
      <point x="506" y="294" type="line"/>
      <point x="571" y="309" type="line"/>
    </contour>
    <contour>
      <point x="200" y="211" type="curve" smooth="yes"/>
      <point x="200" y="273"/>
      <point x="237" y="301"/>
      <point x="286" y="301" type="curve" smooth="yes"/>
      <point x="348" y="301" type="line"/>
      <point x="348" y="123" type="line"/>
      <point x="334" y="119"/>
      <point x="314" y="117"/>
      <point x="292" y="117" type="curve" smooth="yes"/>
      <point x="237" y="117"/>
      <point x="200" y="145"/>
    </contour>
  </outline>
</glyph>
<glyph name="parenleft" format="2">
  <advance width="376"/>
  <unicode hex="0028"/>
  <outline>
    <contour>
      <point x="278" y="-155" type="curve"/>
      <point x="326" y="-109" type="line"/>
      <point x="245" y="-11"/>
      <point x="205" y="162"/>
      <point x="205" y="335" type="curve" smooth="yes"/>
      <point x="205" y="508"/>
      <point x="245" y="681"/>
      <point x="326" y="779" type="curve"/>
      <point x="278" y="825" type="line"/>
      <point x="126" y="683"/>
      <point x="50" y="509"/>
      <point x="50" y="335" type="curve" smooth="yes"/>
      <point x="50" y="161"/>
      <point x="126" y="-13"/>
    </contour>
  </outline>
</glyph>
<glyph name="comma" format="2">
  <advance width="303"/>
  <unicode hex="002C"/>
  <outline>
    <contour>
      <point x="110" y="-209" type="line"/>
      <point x="161" y="-164"/>
      <point x="253" y="-45"/>
      <point x="253" y="75" type="curve"/>
      <point x="138" y="75" type="line"/>
      <point x="131" y="-22"/>
      <point x="92" y="-108"/>
      <point x="60" y="-178" type="curve"/>
    </contour>
    <contour>
      <point x="144" y="1" type="line"/>
      <point x="169" y="-8"/>
      <point x="197" y="2"/>
      <point x="218" y="12" type="curve"/>
      <point x="246" y="30"/>
      <point x="253" y="50"/>
      <point x="253" y="75" type="curve" smooth="yes"/>
      <point x="253" y="133"/>
      <point x="215" y="168"/>
      <point x="159" y="168" type="curve" smooth="yes"/>
      <point x="126" y="168"/>
      <point x="101" y="154"/>
      <point x="81" y="135" type="curve"/>
      <point x="65" y="105"/>
      <point x="63" y="68"/>
      <point x="65" y="29" type="curve"/>
    </contour>
  </outline>
</glyph>
<glyph name="hyphen" format="2">
  <advance width="490"/>
  <unicode hex="002D"/>
  <outline>
    <contour>
      <point x="60" y="243" type="line"/>
      <point x="75" y="228" type="line"/>
      <point x="420" y="228" type="line"/>
      <point x="430" y="358" type="line"/>
      <point x="70" y="358" type="line"/>
    </contour>
  </outline>
</glyph>
<glyph name="period" format="2">
  <advance width="305"/>
  <unicode hex="002E"/>
  <outline>
    <contour>
      <point x="149" y="-10" type="curve" smooth="yes"/>
      <point x="179" y="-10"/>
      <point x="200" y="-3"/>
      <point x="221" y="8" type="curve"/>
      <point x="235" y="27"/>
      <point x="245" y="53"/>
      <point x="245" y="79" type="curve" smooth="yes"/>
      <point x="245" y="133"/>
      <point x="209" y="167"/>
      <point x="158" y="167" type="curve" smooth="yes"/>
      <point x="126" y="167"/>
      <point x="108" y="160"/>
      <point x="86" y="148" type="curve"/>
      <point x="69" y="127"/>
      <point x="60" y="107"/>
      <point x="60" y="75" type="curve" smooth="yes"/>
      <point x="60" y="23"/>
      <point x="97" y="-10"/>
    </contour>
  </outline>
</glyph>
<glyph name="question" format="2">
  <advance width="499"/>
  <unicode hex="003F"/>
  <outline>
    <contour>
      <point x="145" y="233" type="line"/>
      <point x="225" y="233" type="line"/>
      <point x="246" y="315" type="line"/>
      <point x="399" y="409" type="line"/>
      <point x="428" y="442"/>
      <point x="449" y="490"/>
      <point x="449" y="550" type="curve" smooth="yes"/>
      <point x="449" y="680"/>
      <point x="360" y="749"/>
      <point x="228" y="749" type="curve" smooth="yes"/>
      <point x="139" y="749"/>
      <point x="61" y="729"/>
      <point x="10" y="704" type="curve"/>
      <point x="30" y="530" type="line"/>
      <point x="130" y="530" type="line"/>
      <point x="153" y="653" type="line"/>
      <point x="123" y="605" type="line"/>
      <point x="147" y="614"/>
      <point x="179" y="620"/>
      <point x="211" y="620" type="curve" smooth="yes"/>
      <point x="270" y="620"/>
      <point x="294" y="588"/>
      <point x="294" y="540" type="curve" smooth="yes"/>
      <point x="294" y="484"/>
      <point x="280" y="473"/>
      <point x="213" y="434" type="curve" smooth="yes"/>
      <point x="170" y="409"/>
      <point x="139" y="382"/>
      <point x="124" y="335" type="curve"/>
    </contour>
    <component base="period" xOffset="33"/>
  </outline>
</glyph>
<glyph name="A" format="2">
  <advance width="664"/>
  <unicode hex="0041"/>
  <anchor x="585" y="10" name="ogonek"/>
  <anchor x="331" y="0" name="bottom"/>
  <anchor x="325" y="680" name="top"/>
  <outline>
    <contour>
      <point x="292" y="619" type="line"/>
      <point x="435" y="-1" type="line"/>
      <point x="654" y="0" type="line"/>
      <point x="654" y="80" type="line"/>
      <point x="594" y="100" type="line"/>
      <point x="441" y="650" type="line"/>
    </contour>
    <contour>
      <point x="196" y="170" type="line"/>
      <point x="411" y="170" type="line"/>
      <point x="411" y="270" type="line"/>
      <point x="196" y="270" type="line"/>
    </contour>
    <contour>
      <point x="10" y="0" type="line"/>
      <point x="265" y="0" type="line"/>
      <point x="265" y="80" type="line"/>
      <point x="200" y="100" type="line"/>
      <point x="308" y="529" type="line"/>
      <point x="364" y="541" type="line"/>
      <point x="441" y="650" type="line"/>
      <point x="406" y="690" type="line"/>
      <point x="185" y="680" type="line"/>
      <point x="165" y="600" type="line"/>
      <point x="215" y="580" type="line"/>
      <point x="70" y="100" type="line"/>
      <point x="10" y="80" type="line"/>
    </contour>
  </outline>
</glyph>
<glyph name="B" format="2">
  <advance width="595"/>
  <unicode hex="0042"/>
  <outline>
    <contour>
      <point x="350" y="-10" type="curve" smooth="yes"/>
      <point x="388" y="-10"/>
      <point x="420" y="-6"/>
      <point x="452" y="3" type="curve"/>
      <point x="555" y="108" type="line"/>
      <point x="555" y="211" type="line" smooth="yes"/>
      <point x="555" y="301"/>
      <point x="523" y="341"/>
      <point x="448" y="368" type="curve"/>
      <point x="448" y="354" type="line"/>
      <point x="541" y="423" type="line"/>
      <point x="541" y="452"/>
      <point x="541" y="481"/>
      <point x="541" y="510" type="curve" smooth="yes"/>
      <point x="541" y="632"/>
      <point x="446" y="689"/>
      <point x="320" y="689" type="curve" smooth="yes"/>
      <point x="276" y="689"/>
      <point x="229" y="682"/>
      <point x="192" y="675" type="curve"/>
      <point x="192" y="550" type="line"/>
      <point x="233" y="561"/>
      <point x="265" y="564"/>
      <point x="293" y="564" type="curve" smooth="yes"/>
      <point x="352" y="564"/>
      <point x="376" y="535"/>
      <point x="376" y="486" type="curve" smooth="yes"/>
      <point x="376" y="444"/>
      <point x="376" y="403"/>
      <point x="376" y="361" type="curve"/>
      <point x="392" y="377" type="line"/>
      <point x="235" y="377" type="line"/>
      <point x="235" y="287" type="line"/>
      <point x="304" y="287" type="line" smooth="yes"/>
      <point x="363" y="287"/>
      <point x="390" y="266"/>
      <point x="390" y="209" type="curve" smooth="yes"/>
      <point x="390" y="106" type="line"/>
      <point x="406" y="134" type="line"/>
      <point x="386" y="124"/>
      <point x="358" y="120"/>
      <point x="325" y="120" type="curve" smooth="yes"/>
      <point x="290" y="120"/>
      <point x="259" y="125"/>
      <point x="233" y="136" type="curve"/>
      <point x="177" y="66" type="line"/>
      <point x="220" y="21"/>
      <point x="287" y="-10"/>
    </contour>
    <contour>
      <point x="145" y="-5" type="line"/>
      <point x="244" y="120" type="line"/>
      <point x="245" y="636" type="line"/>
      <point x="319" y="689" type="line"/>
      <point x="15" y="680" type="line"/>
      <point x="15" y="600" type="line"/>
      <point x="80" y="580" type="line"/>
      <point x="80" y="0" type="line"/>
    </contour>
  </outline>
</glyph>
<glyph name="C" format="2">
  <advance width="521"/>
  <unicode hex="0043"/>
  <outline>
    <contour>
      <point x="273" y="-10" type="curve" smooth="yes"/>
      <point x="294" y="-10"/>
      <point x="329" y="-9"/>
      <point x="344" y="-8" type="curve"/>
      <point x="485" y="35" type="line"/>
      <point x="485" y="138" type="line"/>
      <point x="452" y="135"/>
      <point x="400" y="130"/>
      <point x="358" y="130" type="curve"/>
      <point x="282" y="130"/>
      <point x="205" y="169"/>
      <point x="205" y="253" type="curve" smooth="yes"/>
      <point x="205" y="572" type="line"/>
      <point x="189" y="541" type="line"/>
      <point x="219" y="554"/>
      <point x="258" y="557"/>
      <point x="290" y="557" type="curve" smooth="yes"/>
      <point x="324" y="557"/>
      <point x="353" y="554"/>
      <point x="376" y="541" type="curve"/>
      <point x="344" y="597" type="line"/>
      <point x="362" y="431" type="line"/>
      <point x="473" y="431" type="line"/>
      <point x="496" y="644" type="line"/>
      <point x="448" y="673"/>
      <point x="369" y="690"/>
      <point x="296" y="690" type="curve" smooth="yes"/>
      <point x="243" y="690"/>
      <point x="179" y="685"/>
      <point x="146" y="680" type="curve"/>
      <point x="40" y="576" type="line"/>
      <point x="40" y="201" type="line" smooth="yes"/>
      <point x="40" y="58"/>
      <point x="171" y="-10"/>
    </contour>
  </outline>
</glyph>
<glyph name="D" format="2">
  <advance width="620"/>
  <unicode hex="0044"/>
  <outline>
    <contour>
      <point x="358" y="-10" type="curve" smooth="yes"/>
      <point x="397" y="-10"/>
      <point x="446" y="-3"/>
      <point x="478" y="5" type="curve"/>
      <point x="580" y="108" type="line"/>
      <point x="580" y="508" type="line" smooth="yes"/>
      <point x="580" y="631"/>
      <point x="460" y="689"/>
      <point x="339" y="689" type="curve" smooth="yes"/>
      <point x="295" y="689"/>
      <point x="233" y="682"/>
      <point x="196" y="675" type="curve"/>
      <point x="196" y="544" type="line"/>
      <point x="249" y="552" type="line"/>
      <point x="269" y="557"/>
      <point x="280" y="559"/>
      <point x="313" y="559" type="curve" smooth="yes"/>
      <point x="360" y="559"/>
      <point x="410" y="536"/>
      <point x="410" y="487" type="curve" smooth="yes"/>
      <point x="410" y="106" type="line"/>
      <point x="426" y="135" type="line"/>
      <point x="406" y="125"/>
      <point x="370" y="120"/>
      <point x="337" y="120" type="curve" smooth="yes"/>
      <point x="309" y="120"/>
      <point x="261" y="125"/>
      <point x="239" y="146" type="curve"/>
      <point x="191" y="70" type="line"/>
      <point x="234" y="19"/>
      <point x="300" y="-10"/>
    </contour>
    <contour>
      <point x="150" y="-5" type="line"/>
      <point x="255" y="122" type="line"/>
      <point x="255" y="636" type="line"/>
      <point x="349" y="689" type="line"/>
      <point x="20" y="680" type="line"/>
      <point x="20" y="600" type="line"/>
      <point x="85" y="580" type="line"/>
      <point x="85" y="0" type="line"/>
    </contour>
  </outline>
</glyph>
<glyph name="E" format="2">
  <advance width="555"/>
  <unicode hex="0045"/>
  <anchor x="484" y="10" name="ogonek"/>
  <anchor x="280" y="680" name="top"/>
  <anchor x="45" y="680" name="topleft"/>
  <anchor x="280" y="0" name="bottom"/>
  <outline>
    <contour>
      <point x="30" y="0" type="line"/>
      <point x="264" y="0" type="line"/>
      <point x="264" y="680" type="line"/>
      <point x="30" y="680" type="line"/>
      <point x="30" y="600" type="line"/>
      <point x="95" y="580" type="line"/>
      <point x="95" y="100" type="line"/>
      <point x="30" y="80" type="line"/>
    </contour>
    <contour>
      <point x="175" y="0" type="line"/>
      <point x="485" y="0" type="line"/>
      <point x="515" y="30" type="line"/>
      <point x="515" y="210" type="line"/>
      <point x="420" y="210" type="line"/>
      <point x="390" y="110" type="line"/>
      <point x="175" y="110" type="line"/>
    </contour>
    <contour>
      <point x="264" y="283" type="line"/>
      <point x="425" y="283" type="line"/>
      <point x="430" y="388" type="line"/>
      <point x="264" y="388" type="line"/>
    </contour>
    <contour>
      <point x="410" y="480" type="line"/>
      <point x="505" y="480" type="line"/>
      <point x="505" y="660" type="line"/>
      <point x="475" y="690" type="line"/>
      <point x="30" y="680" type="line"/>
      <point x="175" y="570" type="line"/>
      <point x="380" y="570" type="line"/>
    </contour>
  </outline>
</glyph>
<glyph name="F" format="2">
  <advance width="510"/>
  <unicode hex="0046"/>
  <outline>
    <contour>
      <point x="30" y="0" type="line"/>
      <point x="364" y="0" type="line"/>
      <point x="364" y="80" type="line"/>
      <point x="264" y="100" type="line"/>
      <point x="264" y="680" type="line"/>
      <point x="35" y="680" type="line"/>
      <point x="30" y="600" type="line"/>
      <point x="95" y="580" type="line"/>
      <point x="95" y="100" type="line"/>
      <point x="30" y="80" type="line"/>
    </contour>
    <contour>
      <point x="264" y="275" type="line"/>
      <point x="445" y="275" type="line"/>
      <point x="450" y="375" type="line"/>
      <point x="264" y="375" type="line"/>
    </contour>
    <contour>
      <point x="415" y="480" type="line"/>
      <point x="510" y="480" type="line"/>
      <point x="510" y="660" type="line"/>
      <point x="480" y="690" type="line"/>
      <point x="40" y="680" type="line"/>
      <point x="175" y="570" type="line"/>
      <point x="385" y="570" type="line"/>
    </contour>
  </outline>
</glyph>
<glyph name="G" format="2">
  <advance width="565"/>
  <unicode hex="0047"/>
  <outline>
    <contour>
      <point x="252" y="-10" type="curve" smooth="yes"/>
      <point x="287" y="-10"/>
      <point x="329" y="-8"/>
      <point x="349" y="-1" type="curve"/>
      <point x="385" y="78" type="line"/>
      <point x="424" y="-6" type="line"/>
      <point x="525" y="5" type="line"/>
      <point x="525" y="310" type="line"/>
      <point x="485" y="350" type="line"/>
      <point x="301" y="340" type="line"/>
      <point x="300" y="258" type="line"/>
      <point x="375" y="243" type="line"/>
      <point x="376" y="101" type="line"/>
      <point x="390" y="131" type="line"/>
      <point x="370" y="121"/>
      <point x="328" y="121"/>
      <point x="295" y="121" type="curve" smooth="yes"/>
      <point x="237" y="121"/>
      <point x="205" y="157"/>
      <point x="205" y="241" type="curve"/>
      <point x="205" y="579" type="line"/>
      <point x="189" y="541" type="line"/>
      <point x="217" y="551"/>
      <point x="257" y="556"/>
      <point x="295" y="556" type="curve" smooth="yes"/>
      <point x="327" y="556"/>
      <point x="379" y="552"/>
      <point x="413" y="538" type="curve"/>
      <point x="373" y="606" type="line"/>
      <point x="392" y="451" type="line"/>
      <point x="502" y="451" type="line"/>
      <point x="525" y="634" type="line"/>
      <point x="486" y="665"/>
      <point x="390" y="690"/>
      <point x="298" y="690" type="curve" smooth="yes"/>
      <point x="237" y="690"/>
      <point x="177" y="684"/>
      <point x="140" y="677" type="curve"/>
      <point x="40" y="576" type="line"/>
      <point x="40" y="200" type="line" smooth="yes"/>
      <point x="40" y="69"/>
      <point x="130" y="-10"/>
    </contour>
  </outline>
</glyph>
<glyph name="H" format="2">
  <advance width="695"/>
  <unicode hex="0048"/>
  <outline>
    <contour>
      <point x="216" y="273" type="line"/>
      <point x="472" y="273" type="line"/>
      <point x="472" y="378" type="line"/>
      <point x="216" y="378" type="line"/>
    </contour>
    <contour>
      <point x="30" y="0" type="line"/>
      <point x="310" y="0" type="line"/>
      <point x="310" y="80" type="line"/>
      <point x="260" y="100" type="line"/>
      <point x="260" y="580" type="line"/>
      <point x="310" y="600" type="line"/>
      <point x="310" y="680" type="line"/>
      <point x="30" y="680" type="line"/>
      <point x="30" y="600" type="line"/>
      <point x="95" y="580" type="line"/>
      <point x="95" y="100" type="line"/>
      <point x="30" y="80" type="line"/>
    </contour>
    <contour>
      <point x="385" y="0" type="line"/>
      <point x="665" y="0" type="line"/>
      <point x="665" y="80" type="line"/>
      <point x="600" y="100" type="line"/>
      <point x="600" y="580" type="line"/>
      <point x="665" y="600" type="line"/>
      <point x="665" y="680" type="line"/>
      <point x="385" y="680" type="line"/>
      <point x="385" y="600" type="line"/>
      <point x="435" y="580" type="line"/>
      <point x="435" y="100" type="line"/>
      <point x="385" y="80" type="line"/>
    </contour>
  </outline>
</glyph>
<glyph name="I" format="2">
  <advance width="360"/>
  <unicode hex="0049"/>
  <anchor x="322" y="10" name="ogonek"/>
  <anchor x="180" y="680" name="top"/>
  <anchor x="23" y="680" name="topleft"/>
  <anchor x="180" y="0" name="bottom"/>
  <outline>
    <contour>
      <point x="30" y="0" type="line"/>
      <point x="330" y="0" type="line"/>
      <point x="330" y="80" type="line"/>
      <point x="265" y="100" type="line"/>
      <point x="265" y="580" type="line"/>
      <point x="330" y="600" type="line"/>
      <point x="330" y="680" type="line"/>
      <point x="30" y="680" type="line"/>
      <point x="30" y="600" type="line"/>
      <point x="95" y="580" type="line"/>
      <point x="95" y="100" type="line"/>
      <point x="30" y="80" type="line"/>
    </contour>
  </outline>
</glyph>
<glyph name="J" format="2">
  <advance width="410"/>
  <unicode hex="004A"/>
  <outline>
    <contour>
      <point x="170" y="580" type="line"/>
      <point x="170" y="207" type="line" smooth="yes"/>
      <point x="170" y="135"/>
      <point x="149" y="115"/>
      <point x="92" y="115" type="curve" smooth="yes"/>
      <point x="74" y="115"/>
      <point x="43" y="114"/>
      <point x="20" y="116" type="curve"/>
      <point x="20" y="20" type="line"/>
      <point x="99" y="-8" type="line"/>
      <point x="114" y="-9"/>
      <point x="139" y="-10"/>
      <point x="160" y="-10" type="curve" smooth="yes"/>
      <point x="282" y="-10"/>
      <point x="335" y="80"/>
      <point x="335" y="205" type="curve" smooth="yes"/>
      <point x="335" y="580" type="line"/>
      <point x="400" y="600" type="line"/>
      <point x="400" y="680" type="line"/>
      <point x="90" y="680" type="line"/>
      <point x="90" y="600" type="line"/>
    </contour>
  </outline>
</glyph>
<glyph name="K" format="2">
  <advance width="648"/>
  <unicode hex="004B"/>
  <outline>
    <contour>
      <point x="305" y="680" type="line"/>
      <point x="30" y="680" type="line"/>
      <point x="30" y="600" type="line"/>
      <point x="95" y="580" type="line"/>
      <point x="95" y="100" type="line"/>
      <point x="30" y="80" type="line"/>
      <point x="30" y="0" type="line"/>
      <point x="305" y="0" type="line"/>
      <point x="305" y="80" type="line"/>
      <point x="260" y="100" type="line"/>
      <point x="260" y="580" type="line"/>
      <point x="305" y="600" type="line"/>
    </contour>
    <contour>
      <point x="508" y="-9" type="curve"/>
      <point x="628" y="10" type="line"/>
      <point x="628" y="90" type="line"/>
      <point x="578" y="112" type="line"/>
      <point x="476" y="332" type="line"/>
      <point x="394" y="357" type="line"/>
      <point x="293" y="321" type="line"/>
      <point x="399" y="100" type="line" smooth="yes"/>
      <point x="431" y="34"/>
      <point x="452" y="6"/>
    </contour>
    <contour>
      <point x="217" y="267" type="line"/>
      <point x="329" y="267" type="line"/>
      <point x="610" y="584" type="line"/>
      <point x="600" y="681" type="line"/>
      <point x="381" y="680" type="line"/>
      <point x="376" y="600" type="line"/>
      <point x="436" y="580" type="line"/>
      <point x="315" y="367" type="line"/>
      <point x="217" y="367" type="line"/>
    </contour>
  </outline>
</glyph>
<glyph name="L" format="2">
  <advance width="535"/>
  <unicode hex="004C"/>
  <outline>
    <contour>
      <point x="30" y="0" type="line"/>
      <point x="485" y="0" type="line"/>
      <point x="515" y="30" type="line"/>
      <point x="515" y="200" type="line"/>
      <point x="425" y="200" type="line"/>
      <point x="395" y="110" type="line"/>
      <point x="175" y="110" type="line"/>
    </contour>
    <contour>
      <point x="329" y="680" type="line"/>
      <point x="30" y="680" type="line"/>
      <point x="30" y="600" type="line"/>
      <point x="95" y="580" type="line"/>
      <point x="95" y="100" type="line"/>
      <point x="30" y="80" type="line"/>
      <point x="30" y="0" type="line"/>
      <point x="264" y="0" type="line"/>
      <point x="264" y="580" type="line"/>
      <point x="329" y="600" type="line"/>
    </contour>
  </outline>
</glyph>
<glyph name="M" format="2">
  <advance width="810"/>
  <unicode hex="004D"/>
  <guideline x="283" y="374" angle="0"/>
  <outline>
    <contour>
      <point x="30" y="0" type="line"/>
      <point x="261" y="0" type="line"/>
      <point x="260" y="80" type="line"/>
      <point x="215" y="102" type="line"/>
      <point x="215" y="514" type="line"/>
      <point x="181" y="514" type="line"/>
      <point x="340" y="80" type="line"/>
      <point x="425" y="90" type="line"/>
      <point x="571" y="476" type="line"/>
      <point x="550" y="476" type="line"/>
      <point x="550" y="98" type="line"/>
      <point x="505" y="80" type="line"/>
      <point x="504" y="0" type="line"/>
      <point x="780" y="0" type="line"/>
      <point x="780" y="80" type="line"/>
      <point x="715" y="100" type="line"/>
      <point x="715" y="580" type="line"/>
      <point x="780" y="600" type="line"/>
      <point x="780" y="680" type="line"/>
      <point x="525" y="680" type="line"/>
      <point x="382" y="251" type="line"/>
      <point x="434" y="251" type="line"/>
      <point x="288" y="680" type="line"/>
      <point x="30" y="680" type="line"/>
      <point x="30" y="603" type="line"/>
      <point x="95" y="583" type="line"/>
      <point x="95" y="104" type="line"/>
      <point x="30" y="80" type="line"/>
    </contour>
  </outline>
</glyph>
<glyph name="N" format="2">
  <advance width="669"/>
  <unicode hex="004E"/>
  <anchor x="360" y="680" name="top"/>
  <anchor x="341" y="0" name="bottom"/>
  <outline>
    <contour>
      <point x="649" y="680" type="line"/>
      <point x="414" y="680" type="line"/>
      <point x="414" y="600" type="line"/>
      <point x="464" y="580" type="line"/>
      <point x="468" y="129" type="line"/>
      <point x="517" y="128" type="line"/>
      <point x="280" y="680" type="line"/>
      <point x="30" y="680" type="line"/>
      <point x="30" y="600" type="line"/>
      <point x="95" y="580" type="line"/>
      <point x="95" y="100" type="line"/>
      <point x="30" y="80" type="line"/>
      <point x="30" y="0" type="line"/>
      <point x="286" y="0" type="line"/>
      <point x="285" y="80" type="line"/>
      <point x="225" y="100" type="line"/>
      <point x="215" y="522" type="line"/>
      <point x="183" y="509" type="line"/>
      <point x="419" y="-5" type="line"/>
      <point x="584" y="5" type="line"/>
      <point x="584" y="580" type="line"/>
      <point x="649" y="600" type="line"/>
    </contour>
  </outline>
</glyph>
<glyph name="O" format="2">
  <advance width="569"/>
  <unicode hex="004F"/>
  <anchor x="285" y="340" name="center"/>
  <anchor x="503" y="10" name="ogonek"/>
  <anchor x="285" y="680" name="top"/>
  <anchor x="537" y="680" name="topright"/>
  <anchor x="32" y="680" name="topleft"/>
  <anchor x="285" y="0" name="bottom"/>
  <outline>
    <contour>
      <point x="267" y="-10" type="curve" smooth="yes"/>
      <point x="323" y="-10"/>
      <point x="395" y="-3"/>
      <point x="429" y="5" type="curve"/>
      <point x="529" y="108" type="line"/>
      <point x="529" y="518" type="line" smooth="yes"/>
      <point x="529" y="641"/>
      <point x="416" y="689"/>
      <point x="295" y="689" type="curve" smooth="yes"/>
      <point x="251" y="689"/>
      <point x="177" y="682"/>
      <point x="140" y="675" type="curve"/>
      <point x="40" y="570" type="line"/>
      <point x="40" y="177" type="line" smooth="yes"/>
      <point x="40" y="46"/>
      <point x="145" y="-10"/>
    </contour>
    <contour>
      <point x="364" y="106" type="line"/>
      <point x="380" y="135" type="line"/>
      <point x="360" y="125"/>
      <point x="314" y="120"/>
      <point x="281" y="120" type="curve" smooth="yes"/>
      <point x="239" y="120"/>
      <point x="205" y="141"/>
      <point x="205" y="201" type="curve" smooth="yes"/>
      <point x="205" y="573" type="line"/>
      <point x="189" y="544" type="line"/>
      <point x="209" y="553"/>
      <point x="251" y="559"/>
      <point x="277" y="559" type="curve" smooth="yes"/>
      <point x="324" y="559"/>
      <point x="364" y="540"/>
      <point x="364" y="491" type="curve" smooth="yes"/>
    </contour>
  </outline>
</glyph>
<glyph name="P" format="2">
  <advance width="600"/>
  <unicode hex="0050"/>
  <outline>
    <contour>
      <point x="30" y="0" type="line"/>
      <point x="355" y="0" type="line"/>
      <point x="355" y="80" type="line"/>
      <point x="260" y="100" type="line"/>
      <point x="260" y="609" type="line"/>
      <point x="329" y="689" type="line"/>
      <point x="30" y="680" type="line"/>
      <point x="30" y="600" type="line"/>
      <point x="95" y="580" type="line"/>
      <point x="95" y="100" type="line"/>
      <point x="30" y="80" type="line"/>
    </contour>
    <contour>
      <point x="369" y="189" type="curve" smooth="yes"/>
      <point x="402" y="189"/>
      <point x="446" y="194"/>
      <point x="470" y="202" type="curve"/>
      <point x="570" y="302" type="line"/>
      <point x="570" y="515" type="line"/>
      <point x="570" y="637"/>
      <point x="455" y="689"/>
      <point x="339" y="689" type="curve" smooth="yes"/>
      <point x="314" y="689"/>
      <point x="276" y="687"/>
      <point x="249" y="683" type="curve"/>
      <point x="239" y="551" type="line"/>
      <point x="259" y="556"/>
      <point x="297" y="559"/>
      <point x="322" y="559" type="curve" smooth="yes"/>
      <point x="368" y="559"/>
      <point x="400" y="533"/>
      <point x="400" y="486" type="curve" smooth="yes"/>
      <point x="400" y="300" type="line"/>
      <point x="416" y="327" type="line"/>
      <point x="394" y="318"/>
      <point x="359" y="314"/>
      <point x="329" y="314" type="curve" smooth="yes"/>
      <point x="299" y="314"/>
      <point x="266" y="315"/>
      <point x="239" y="321" type="curve"/>
      <point x="201" y="222" type="line"/>
      <point x="235" y="209"/>
      <point x="310" y="189"/>
    </contour>
  </outline>
</glyph>
<glyph name="Q" format="2">
  <advance width="575"/>
  <unicode hex="0051"/>
  <guideline x="505" y="108" angle="90"/>
  <outline>
    <contour>
      <point x="392" y="-199" type="curve" smooth="yes"/>
      <point x="432" y="-199"/>
      <point x="485" y="-170"/>
      <point x="525" y="-151" type="curve"/>
      <point x="515" y="-61" type="line"/>
      <point x="430" y="-61" type="line"/>
      <point x="275" y="-10" type="line"/>
      <point x="216" y="13" type="line"/>
      <point x="166" y="-77" type="line" smooth="yes"/>
      <point x="255" y="-152"/>
      <point x="347" y="-199"/>
    </contour>
    <component base="O"/>
  </outline>
</glyph>
<glyph name="R" format="2">
  <advance width="619"/>
  <unicode hex="0052"/>
  <outline>
    <contour>
      <point x="30" y="0" type="line"/>
      <point x="305" y="0" type="line"/>
      <point x="305" y="80" type="line"/>
      <point x="260" y="100" type="line"/>
      <point x="261" y="609" type="line"/>
      <point x="330" y="689" type="line"/>
      <point x="30" y="680" type="line"/>
      <point x="30" y="600" type="line"/>
      <point x="95" y="580" type="line"/>
      <point x="95" y="100" type="line"/>
      <point x="30" y="80" type="line"/>
    </contour>
    <contour>
      <point x="496" y="-9" type="curve"/>
      <point x="619" y="10" type="line"/>
      <point x="619" y="90" type="line"/>
      <point x="569" y="112" type="line"/>
      <point x="507" y="252" type="line"/>
      <point x="442" y="272" type="line"/>
      <point x="330" y="245" type="line"/>
      <point x="388" y="99" type="line" smooth="yes"/>
      <point x="416" y="29"/>
      <point x="438" y="9"/>
    </contour>
    <contour>
      <point x="211" y="243" type="line"/>
      <point x="344" y="243" type="line"/>
      <point x="436" y="253" type="line"/>
      <point x="556" y="364" type="line"/>
      <point x="556" y="412"/>
      <point x="556" y="459"/>
      <point x="556" y="507" type="curve" smooth="yes"/>
      <point x="556" y="629"/>
      <point x="477" y="689"/>
      <point x="340" y="689" type="curve" smooth="yes"/>
      <point x="296" y="689"/>
      <point x="234" y="682"/>
      <point x="197" y="675" type="curve"/>
      <point x="197" y="544" type="line"/>
      <point x="232" y="555"/>
      <point x="276" y="559"/>
      <point x="318" y="559" type="curve" smooth="yes"/>
      <point x="374" y="559"/>
      <point x="391" y="539"/>
      <point x="391" y="479" type="curve" smooth="yes"/>
      <point x="391" y="429"/>
      <point x="391" y="379"/>
      <point x="391" y="329" type="curve"/>
      <point x="407" y="350" type="line"/>
      <point x="385" y="345"/>
      <point x="318" y="343"/>
      <point x="271" y="343" type="curve"/>
      <point x="240" y="343" type="line"/>
    </contour>
  </outline>
</glyph>
<glyph name="S" format="2">
  <advance width="525"/>
  <unicode hex="0053"/>
  <outline>
    <contour>
      <point x="257" y="-10" type="curve" smooth="yes"/>
      <point x="318" y="-10"/>
      <point x="363" y="5"/>
      <point x="394" y="26" type="curve"/>
      <point x="495" y="131" type="line"/>
      <point x="495" y="204" type="line" smooth="yes"/>
      <point x="495" y="320"/>
      <point x="397" y="373"/>
      <point x="313" y="406" type="curve" smooth="yes"/>
      <point x="250" y="430"/>
      <point x="194" y="457"/>
      <point x="194" y="515" type="curve" smooth="yes"/>
      <point x="194" y="563" type="line"/>
      <point x="176" y="530" type="line"/>
      <point x="196" y="547"/>
      <point x="231" y="559"/>
      <point x="270" y="559" type="curve" smooth="yes"/>
      <point x="310" y="559"/>
      <point x="341" y="556"/>
      <point x="370" y="545" type="curve"/>
      <point x="340" y="593" type="line"/>
      <point x="363" y="460" type="line"/>
      <point x="463" y="460" type="line"/>
      <point x="483" y="634" type="line"/>
      <point x="443" y="665"/>
      <point x="371" y="689"/>
      <point x="282" y="689" type="curve" smooth="yes"/>
      <point x="216" y="689"/>
      <point x="148" y="672"/>
      <point x="112" y="635" type="curve"/>
      <point x="34" y="548" type="line"/>
      <point x="34" y="466" type="line" smooth="yes"/>
      <point x="34" y="365"/>
      <point x="117" y="318"/>
      <point x="193" y="287" type="curve" smooth="yes"/>
      <point x="261" y="259"/>
      <point x="335" y="219"/>
      <point x="335" y="157" type="curve" smooth="yes"/>
      <point x="335" y="87" type="line"/>
      <point x="355" y="137" type="line"/>
      <point x="334" y="124"/>
      <point x="286" y="120"/>
      <point x="252" y="120" type="curve" smooth="yes"/>
      <point x="216" y="120"/>
      <point x="167" y="126"/>
      <point x="137" y="146" type="curve"/>
      <point x="176" y="97" type="line"/>
      <point x="150" y="214" type="line"/>
      <point x="50" y="214" type="line"/>
      <point x="30" y="49" type="line"/>
      <point x="84" y="12"/>
      <point x="180" y="-10"/>
    </contour>
  </outline>
</glyph>
<glyph name="T" format="2">
  <advance width="598"/>
  <unicode hex="0054"/>
  <outline>
    <contour>
      <point x="128" y="0" type="line"/>
      <point x="470" y="0" type="line"/>
      <point x="470" y="70" type="line"/>
      <point x="385" y="100" type="line"/>
      <point x="385" y="570" type="line"/>
      <point x="453" y="570" type="line"/>
      <point x="478" y="460" type="line"/>
      <point x="568" y="460" type="line"/>
      <point x="573" y="655" type="line"/>
      <point x="543" y="685" type="line"/>
      <point x="299" y="680" type="line"/>
      <point x="55" y="685" type="line"/>
      <point x="25" y="655" type="line"/>
      <point x="30" y="460" type="line"/>
      <point x="120" y="460" type="line"/>
      <point x="145" y="570" type="line"/>
      <point x="213" y="570" type="line"/>
      <point x="213" y="100" type="line"/>
      <point x="128" y="70" type="line"/>
    </contour>
  </outline>
</glyph>
<glyph name="U" format="2">
  <advance width="645"/>
  <unicode hex="0055"/>
  <anchor x="569" y="10" name="ogonek"/>
  <anchor x="323" y="680" name="top"/>
  <anchor x="610" y="680" name="topright"/>
  <anchor x="323" y="0" name="bottom"/>
  <outline>
    <contour>
      <point x="319" y="-10" type="curve" smooth="yes"/>
      <point x="370" y="-10"/>
      <point x="441" y="-3"/>
      <point x="475" y="8" type="curve"/>
      <point x="575" y="108" type="line"/>
      <point x="575" y="580" type="line"/>
      <point x="635" y="600" type="line"/>
      <point x="635" y="680" type="line"/>
      <point x="370" y="680" type="line"/>
      <point x="370" y="600" type="line"/>
      <point x="420" y="580" type="line"/>
      <point x="420" y="137" type="line"/>
      <point x="403" y="125"/>
      <point x="359" y="120"/>
      <point x="340" y="120" type="curve" smooth="yes"/>
      <point x="298" y="120"/>
      <point x="250" y="141"/>
      <point x="250" y="201" type="curve" smooth="yes"/>
      <point x="250" y="680" type="line"/>
      <point x="20" y="680" type="line"/>
      <point x="20" y="600" type="line"/>
      <point x="85" y="580" type="line"/>
      <point x="85" y="207" type="line" smooth="yes"/>
      <point x="85" y="65"/>
      <point x="177" y="-10"/>
    </contour>
  </outline>
</glyph>
<glyph name="V" format="2">
  <advance width="680"/>
  <unicode hex="0056"/>
  <outline>
    <contour>
      <point x="250" y="-10" type="line"/>
      <point x="435" y="0" type="line"/>
      <point x="605" y="580" type="line"/>
      <point x="665" y="600" type="line"/>
      <point x="665" y="680" type="line"/>
      <point x="409" y="680" type="line"/>
      <point x="409" y="600" type="line"/>
      <point x="474" y="580" type="line"/>
      <point x="366" y="151" type="line"/>
      <point x="320" y="139" type="line"/>
      <point x="240" y="30" type="line"/>
    </contour>
    <contour>
      <point x="240" y="30" type="line"/>
      <point x="392" y="61" type="line"/>
      <point x="263" y="580" type="line"/>
      <point x="303" y="600" type="line"/>
      <point x="303" y="680" type="line"/>
      <point x="15" y="680" type="line"/>
      <point x="15" y="600" type="line"/>
      <point x="75" y="580" type="line"/>
    </contour>
  </outline>
</glyph>
<glyph name="W" format="2">
  <advance width="985"/>
  <unicode hex="0057"/>
  <outline>
    <contour>
      <point x="15" y="600" type="line"/>
      <point x="75" y="580" type="line"/>
      <point x="219" y="-5" type="line"/>
      <point x="416" y="0" type="line"/>
      <point x="511" y="526" type="line"/>
      <point x="468" y="526" type="line"/>
      <point x="561" y="-5" type="line"/>
      <point x="765" y="0" type="line"/>
      <point x="910" y="580" type="line"/>
      <point x="970" y="600" type="line"/>
      <point x="970" y="680" type="line"/>
      <point x="713" y="680" type="line"/>
      <point x="713" y="600" type="line"/>
      <point x="778" y="580" type="line"/>
      <point x="663" y="100" type="line"/>
      <point x="697" y="100" type="line"/>
      <point x="582" y="685" type="line"/>
      <point x="421" y="680" type="line"/>
      <point x="305" y="100" type="line"/>
      <point x="339" y="100" type="line"/>
      <point x="250" y="596" type="line"/>
      <point x="289" y="610" type="line"/>
      <point x="289" y="680" type="line"/>
      <point x="15" y="680" type="line"/>
    </contour>
  </outline>
</glyph>
<glyph name="X" format="2">
  <advance width="678"/>
  <unicode hex="0058"/>
  <outline>
    <contour>
      <point x="252" y="373" type="line"/>
      <point x="85" y="100" type="line"/>
      <point x="25" y="80" type="line"/>
      <point x="25" y="0" type="line"/>
      <point x="282" y="0" type="line"/>
      <point x="282" y="80" type="line"/>
      <point x="237" y="100" type="line"/>
      <point x="342" y="310" type="line"/>
    </contour>
    <contour>
      <point x="330" y="385" type="line"/>
      <point x="374" y="261" type="line"/>
      <point x="585" y="580" type="line"/>
      <point x="648" y="600" type="line"/>
      <point x="648" y="680" type="line"/>
      <point x="390" y="680" type="line"/>
      <point x="390" y="600" type="line"/>
      <point x="440" y="583" type="line"/>
    </contour>
    <contour>
      <point x="25" y="600" type="line"/>
      <point x="85" y="580" type="line"/>
      <point x="240" y="325" type="line"/>
      <point x="280" y="318" type="line"/>
      <point x="434" y="-5" type="line"/>
      <point x="653" y="0" type="line"/>
      <point x="653" y="85" type="line"/>
      <point x="593" y="105" type="line"/>
      <point x="427" y="371" type="line"/>
      <point x="388" y="380" type="line"/>
      <point x="245" y="685" type="line"/>
      <point x="25" y="680" type="line"/>
    </contour>
  </outline>
</glyph>
<glyph name="Y" format="2">
  <advance width="680"/>
  <unicode hex="0059"/>
  <outline>
    <contour>
      <point x="175" y="0" type="line"/>
      <point x="510" y="0" type="line"/>
      <point x="510" y="70" type="line"/>
      <point x="425" y="100" type="line"/>
      <point x="425" y="250" type="line"/>
      <point x="605" y="580" type="line"/>
      <point x="665" y="600" type="line"/>
      <point x="665" y="680" type="line"/>
      <point x="423" y="680" type="line"/>
      <point x="423" y="600" type="line"/>
      <point x="470" y="580" type="line"/>
      <point x="342" y="323" type="line"/>
      <point x="377" y="322" type="line"/>
      <point x="270" y="580" type="line"/>
      <point x="306" y="600" type="line"/>
      <point x="306" y="680" type="line"/>
      <point x="15" y="680" type="line"/>
      <point x="15" y="600" type="line"/>
      <point x="75" y="580" type="line"/>
      <point x="260" y="250" type="line"/>
      <point x="260" y="100" type="line"/>
      <point x="175" y="70" type="line"/>
    </contour>
  </outline>
</glyph>
<glyph name="Z" format="2">
  <advance width="606"/>
  <unicode hex="005A"/>
  <outline>
    <contour>
      <point x="50" y="100" type="line"/>
      <point x="92" y="0" type="line"/>
      <point x="437" y="0" type="line"/>
      <point x="530" y="-2" type="line"/>
      <point x="560" y="28" type="line"/>
      <point x="555" y="223" type="line"/>
      <point x="465" y="223" type="line"/>
      <point x="427" y="77" type="line"/>
      <point x="485" y="120" type="line"/>
      <point x="223" y="120" type="line"/>
      <point x="244" y="82" type="line"/>
      <point x="561" y="580" type="line"/>
      <point x="537" y="680" type="line"/>
      <point x="88" y="685" type="line"/>
      <point x="58" y="655" type="line"/>
      <point x="63" y="460" type="line"/>
      <point x="153" y="460" type="line"/>
      <point x="190" y="607" type="line"/>
      <point x="133" y="564" type="line"/>
      <point x="398" y="564" type="line"/>
      <point x="377" y="602" type="line"/>
    </contour>
  </outline>
</glyph>
<glyph name="a" format="2">
  <advance width="539"/>
  <unicode hex="0061"/>
  <anchor x="485" y="10" name="ogonek"/>
  <anchor x="270" y="0" name="bottom"/>
  <anchor x="270" y="540" name="top"/>
  <outline>
    <contour>
      <point x="393" y="-10" type="curve"/>
      <point x="524" y="27" type="line"/>
      <point x="524" y="97" type="line"/>
      <point x="464" y="117" type="line"/>
      <point x="466" y="425" type="line"/>
      <point x="446" y="503"/>
      <point x="374" y="549"/>
      <point x="287" y="549" type="curve"/>
      <point x="228" y="549"/>
      <point x="184" y="539"/>
      <point x="143" y="524" type="curve"/>
      <point x="52" y="437" type="line"/>
      <point x="77" y="378" type="line"/>
      <point x="116" y="390"/>
      <point x="177" y="403"/>
      <point x="242" y="403" type="curve" smooth="yes"/>
      <point x="283" y="403"/>
      <point x="302" y="398"/>
      <point x="324" y="384" type="curve"/>
      <point x="306" y="448" type="line"/>
      <point x="304" y="111" type="line"/>
      <point x="304" y="45"/>
      <point x="339" y="7"/>
    </contour>
    <contour>
      <point x="192" y="-9" type="curve" smooth="yes"/>
      <point x="226" y="-9"/>
      <point x="252" y="-1"/>
      <point x="267" y="9" type="curve"/>
      <point x="326" y="116" type="line"/>
      <point x="316" y="147" type="line"/>
      <point x="303" y="132"/>
      <point x="283" y="120"/>
      <point x="254" y="120" type="curve" smooth="yes"/>
      <point x="219" y="120"/>
      <point x="205" y="147"/>
      <point x="205" y="190" type="curve" smooth="yes"/>
      <point x="205" y="200"/>
      <point x="205" y="206"/>
      <point x="207" y="216" type="curve"/>
      <point x="321" y="229" type="line"/>
      <point x="353" y="300" type="line"/>
      <point x="63" y="270" type="line"/>
      <point x="53" y="232"/>
      <point x="50" y="208"/>
      <point x="50" y="166" type="curve" smooth="yes"/>
      <point x="50" y="67"/>
      <point x="100" y="-9"/>
    </contour>
  </outline>
</glyph>
<glyph name="b" format="2">
  <advance width="570"/>
  <unicode hex="0062"/>
  <outline>
    <contour>
      <point x="333" y="-8" type="curve" smooth="yes"/>
      <point x="369" y="-8"/>
      <point x="394" y="-2"/>
      <point x="415" y="6" type="curve"/>
      <point x="510" y="111" type="line"/>
      <point x="510" y="205"/>
      <point x="510" y="299"/>
      <point x="510" y="393" type="curve" smooth="yes"/>
      <point x="510" y="499"/>
      <point x="437" y="548"/>
      <point x="343" y="548" type="curve" smooth="yes"/>
      <point x="317" y="548"/>
      <point x="292" y="544"/>
      <point x="283" y="539" type="curve"/>
      <point x="218" y="424" type="line"/>
      <point x="218" y="401" type="line"/>
      <point x="235" y="410"/>
      <point x="262" y="418"/>
      <point x="292" y="418" type="curve" smooth="yes"/>
      <point x="332" y="418"/>
      <point x="355" y="397"/>
      <point x="355" y="350" type="curve" smooth="yes"/>
      <point x="355" y="271"/>
      <point x="355" y="192"/>
      <point x="355" y="113" type="curve"/>
      <point x="371" y="142" type="line"/>
      <point x="352" y="127"/>
      <point x="323" y="123"/>
      <point x="291" y="123" type="curve" smooth="yes"/>
      <point x="263" y="123"/>
      <point x="244" y="128"/>
      <point x="223" y="141" type="curve"/>
      <point x="166" y="78" type="line"/>
      <point x="215" y="21"/>
      <point x="267" y="-8"/>
    </contour>
    <contour>
      <point x="145" y="0" type="line"/>
      <point x="240" y="132" type="line"/>
      <point x="240" y="435" type="line"/>
      <point x="235" y="448" type="line"/>
      <point x="235" y="715" type="line"/>
      <point x="205" y="745" type="line"/>
      <point x="20" y="710" type="line"/>
      <point x="20" y="645" type="line"/>
      <point x="80" y="615" type="line"/>
      <point x="80" y="5" type="line"/>
    </contour>
  </outline>
</glyph>
<glyph name="c" format="2">
  <advance width="450"/>
  <unicode hex="0063"/>
  <guideline x="336" y="405" angle="0"/>
  <outline>
    <contour>
      <point x="271" y="-10" type="curve" smooth="yes"/>
      <point x="290" y="-10"/>
      <point x="317" y="-8"/>
      <point x="334" y="-5" type="curve"/>
      <point x="433" y="35" type="line"/>
      <point x="433" y="128" type="line"/>
      <point x="398" y="126"/>
      <point x="354" y="124"/>
      <point x="315" y="124" type="curve" smooth="yes"/>
      <point x="254" y="124"/>
      <point x="215" y="163"/>
      <point x="215" y="224" type="curve" smooth="yes"/>
      <point x="215" y="428" type="line"/>
      <point x="198" y="389" type="line"/>
      <point x="217" y="401"/>
      <point x="270" y="406"/>
      <point x="301" y="406" type="curve" smooth="yes"/>
      <point x="342" y="406"/>
      <point x="377" y="402"/>
      <point x="405" y="397" type="curve"/>
      <point x="435" y="533" type="line"/>
      <point x="398" y="542"/>
      <point x="344" y="549"/>
      <point x="285" y="549" type="curve" smooth="yes"/>
      <point x="243" y="549"/>
      <point x="185" y="544"/>
      <point x="150" y="537" type="curve"/>
      <point x="60" y="432" type="line"/>
      <point x="60" y="184" type="line" smooth="yes"/>
      <point x="60" y="35"/>
      <point x="177" y="-10"/>
    </contour>
  </outline>
</glyph>
<glyph name="d" format="2">
  <advance width="540"/>
  <unicode hex="0064"/>
  <outline>
    <contour>
      <point x="233" y="-8" type="curve" smooth="yes"/>
      <point x="295" y="-8"/>
      <point x="356" y="29"/>
      <point x="404" y="88" type="curve"/>
      <point x="347" y="141" type="line"/>
      <point x="326" y="128"/>
      <point x="307" y="123"/>
      <point x="279" y="123" type="curve" smooth="yes"/>
      <point x="247" y="123"/>
      <point x="218" y="127"/>
      <point x="199" y="142" type="curve"/>
      <point x="215" y="113" type="line"/>
      <point x="215" y="192"/>
      <point x="215" y="271"/>
      <point x="215" y="350" type="curve" smooth="yes"/>
      <point x="215" y="397"/>
      <point x="238" y="418"/>
      <point x="278" y="418" type="curve" smooth="yes"/>
      <point x="308" y="418"/>
      <point x="335" y="410"/>
      <point x="352" y="401" type="curve"/>
      <point x="352" y="424" type="line"/>
      <point x="287" y="539" type="line"/>
      <point x="278" y="544"/>
      <point x="253" y="548"/>
      <point x="227" y="548" type="curve" smooth="yes"/>
      <point x="133" y="548"/>
      <point x="60" y="499"/>
      <point x="60" y="393" type="curve" smooth="yes"/>
      <point x="60" y="299"/>
      <point x="60" y="205"/>
      <point x="60" y="111" type="curve"/>
      <point x="150" y="6" type="line"/>
      <point x="171" y="-1"/>
      <point x="197" y="-8"/>
    </contour>
    <contour>
      <point x="425" y="0" type="line"/>
      <point x="490" y="5" type="line"/>
      <point x="490" y="715" type="line"/>
      <point x="460" y="745" type="line"/>
      <point x="275" y="710" type="line"/>
      <point x="275" y="645" type="line"/>
      <point x="335" y="615" type="line"/>
      <point x="335" y="448" type="line"/>
      <point x="330" y="435" type="line"/>
      <point x="330" y="132" type="line"/>
    </contour>
  </outline>
</glyph>
<glyph name="e" format="2">
  <advance width="485"/>
  <unicode hex="0065"/>
  <anchor x="437" y="10" name="ogonek"/>
  <anchor x="243" y="0" name="bottom"/>
  <anchor x="243" y="540" name="top"/>
  <outline>
    <contour>
      <point x="263" y="-10" type="curve" smooth="yes"/>
      <point x="313" y="-10"/>
      <point x="353" y="4"/>
      <point x="377" y="15" type="curve"/>
      <point x="470" y="87" type="line"/>
      <point x="444" y="151" type="line"/>
      <point x="416" y="139"/>
      <point x="354" y="119"/>
      <point x="305" y="119" type="curve" smooth="yes"/>
      <point x="252" y="119"/>
      <point x="220" y="145"/>
      <point x="220" y="200" type="curve" smooth="yes"/>
      <point x="220" y="439" type="line"/>
      <point x="203" y="410" type="line"/>
      <point x="224" y="421"/>
      <point x="245" y="428"/>
      <point x="273" y="428" type="curve" smooth="yes"/>
      <point x="302" y="428"/>
      <point x="321" y="424"/>
      <point x="341" y="413" type="curve"/>
      <point x="320" y="440" type="line"/>
      <point x="321" y="305" type="line"/>
      <point x="198" y="300" type="line"/>
      <point x="198" y="229" type="line"/>
      <point x="415" y="225" type="line"/>
      <point x="465" y="285" type="line"/>
      <point x="465" y="381" type="line" smooth="yes"/>
      <point x="465" y="478"/>
      <point x="396" y="550"/>
      <point x="276" y="550" type="curve" smooth="yes"/>
      <point x="226" y="550"/>
      <point x="186" y="541"/>
      <point x="150" y="532" type="curve"/>
      <point x="60" y="432" type="line"/>
      <point x="60" y="194" type="line" smooth="yes"/>
      <point x="60" y="52"/>
      <point x="144" y="-10"/>
    </contour>
  </outline>
</glyph>
<glyph name="f" format="2">
  <advance width="399"/>
  <unicode hex="0066"/>
  <outline>
    <contour>
      <point x="123" y="-10" type="line"/>
      <point x="253" y="0" type="line"/>
      <point x="253" y="435" type="line"/>
      <point x="248" y="448" type="line"/>
      <point x="233" y="634" type="line"/>
      <point x="228" y="584" type="line"/>
      <point x="253" y="598"/>
      <point x="289" y="602"/>
      <point x="327" y="602" type="curve" smooth="yes"/>
      <point x="356" y="602"/>
      <point x="379" y="598"/>
      <point x="399" y="593" type="curve"/>
      <point x="429" y="729" type="line"/>
      <point x="401" y="739"/>
      <point x="372" y="745"/>
      <point x="317" y="745" type="curve" smooth="yes"/>
      <point x="271" y="745"/>
      <point x="221" y="738"/>
      <point x="183" y="729" type="curve"/>
      <point x="93" y="628" type="line"/>
      <point x="93" y="20" type="line"/>
    </contour>
    <contour>
      <point x="362" y="380" type="line"/>
      <point x="393" y="405" type="line"/>
      <point x="393" y="490" type="line"/>
      <point x="50" y="480" type="line"/>
      <point x="30" y="460" type="line"/>
      <point x="34" y="385" type="line"/>
    </contour>
  </outline>
</glyph>
<glyph name="g" format="2">
  <advance width="529"/>
  <unicode hex="0067"/>
  <outline>
    <contour>
      <point x="269" y="64" type="curve" smooth="yes"/>
      <point x="317" y="64"/>
      <point x="364" y="70"/>
      <point x="394" y="78" type="curve"/>
      <point x="484" y="183" type="line"/>
      <point x="484" y="550" type="line"/>
      <point x="424" y="550" type="line"/>
      <point x="329" y="416" type="line"/>
      <point x="329" y="170" type="line"/>
      <point x="345" y="196" type="line"/>
      <point x="326" y="186"/>
      <point x="310" y="184"/>
      <point x="282" y="184" type="curve" smooth="yes"/>
      <point x="235" y="184"/>
      <point x="214" y="207"/>
      <point x="214" y="257" type="curve"/>
      <point x="214" y="435" type="line"/>
      <point x="198" y="406" type="line"/>
      <point x="216" y="420"/>
      <point x="243" y="425"/>
      <point x="275" y="425" type="curve"/>
      <point x="303" y="425"/>
      <point x="325" y="420"/>
      <point x="346" y="407" type="curve"/>
      <point x="403" y="470" type="line"/>
      <point x="356" y="526"/>
      <point x="296" y="550"/>
      <point x="232" y="550" type="curve"/>
      <point x="196" y="550"/>
      <point x="170" y="544"/>
      <point x="149" y="537" type="curve"/>
      <point x="59" y="432" type="line"/>
      <point x="59" y="239" type="line"/>
      <point x="59" y="119"/>
      <point x="147" y="64"/>
    </contour>
    <contour>
      <point x="431" y="-204" type="line"/>
      <point x="501" y="-200" type="line"/>
      <point x="529" y="-105" type="line"/>
      <point x="512" y="-51"/>
      <point x="474" y="-16"/>
      <point x="408" y="-16" type="curve"/>
      <point x="139" y="-18" type="line"/>
      <point x="218" y="-36" type="line"/>
      <point x="198" y="-18" type="line"/>
      <point x="189" y="30"/>
      <point x="196" y="82"/>
      <point x="204" y="107" type="curve"/>
      <point x="159" y="122" type="line"/>
      <point x="60" y="26" type="line"/>
      <point x="46" y="5"/>
      <point x="40" y="-19"/>
      <point x="40" y="-45" type="curve" smooth="yes"/>
      <point x="40" y="-100"/>
      <point x="68" y="-141"/>
      <point x="122" y="-162" type="curve"/>
      <point x="402" y="-160" type="line"/>
    </contour>
  </outline>
</glyph>
<glyph name="h" format="2">
  <advance width="580"/>
  <unicode hex="0068"/>
  <outline>
    <contour>
      <point x="440" y="-10" type="curve"/>
      <point x="565" y="27" type="line"/>
      <point x="565" y="97" type="line"/>
      <point x="505" y="117" type="line"/>
      <point x="505" y="435" type="line" smooth="yes"/>
      <point x="505" y="498"/>
      <point x="450" y="545"/>
      <point x="373" y="545" type="curve" smooth="yes"/>
      <point x="336" y="545"/>
      <point x="316" y="540"/>
      <point x="296" y="534" type="curve"/>
      <point x="235" y="454" type="line"/>
      <point x="219" y="370" type="line"/>
      <point x="233" y="388"/>
      <point x="271" y="398"/>
      <point x="301" y="398" type="curve" smooth="yes"/>
      <point x="322" y="398"/>
      <point x="341" y="394"/>
      <point x="350" y="388" type="curve"/>
      <point x="350" y="121" type="line" smooth="yes"/>
      <point x="350" y="55"/>
      <point x="381" y="13"/>
    </contour>
    <contour>
      <point x="110" y="-10" type="line"/>
      <point x="240" y="0" type="line"/>
      <point x="240" y="435" type="line"/>
      <point x="235" y="448" type="line"/>
      <point x="235" y="720" type="line"/>
      <point x="205" y="750" type="line"/>
      <point x="20" y="715" type="line"/>
      <point x="20" y="650" type="line"/>
      <point x="80" y="620" type="line"/>
      <point x="80" y="20" type="line"/>
    </contour>
  </outline>
</glyph>
<glyph name="k" format="2">
  <advance width="565"/>
  <unicode hex="006B"/>
  <outline>
    <contour>
      <point x="436" y="277" type="line"/>
      <point x="371" y="302" type="line"/>
      <point x="305" y="301" type="line"/>
      <point x="269" y="263" type="line"/>
      <point x="334" y="99" type="line" smooth="yes"/>
      <point x="365" y="20"/>
      <point x="381" y="13"/>
      <point x="440" y="-10" type="curve"/>
      <point x="565" y="27" type="line"/>
      <point x="565" y="97" type="line"/>
      <point x="505" y="117" type="line"/>
    </contour>
    <contour>
      <point x="110" y="-10" type="line"/>
      <point x="240" y="0" type="line"/>
      <point x="240" y="720" type="line"/>
      <point x="210" y="750" type="line"/>
      <point x="20" y="715" type="line"/>
      <point x="20" y="650" type="line"/>
      <point x="80" y="620" type="line"/>
      <point x="80" y="20" type="line"/>
    </contour>
    <contour>
      <point x="218" y="158" type="line"/>
      <point x="550" y="465" type="line"/>
      <point x="540" y="540" type="line"/>
      <point x="336" y="539" type="line"/>
      <point x="331" y="474" type="line"/>
      <point x="386" y="452" type="line"/>
      <point x="218" y="251" type="line"/>
    </contour>
  </outline>
</glyph>
<glyph name="l" format="2">
  <advance width="310"/>
  <unicode hex="006C"/>
  <outline>
    <contour>
      <point x="165" y="-10" type="curve"/>
      <point x="295" y="27" type="line"/>
      <point x="295" y="97" type="line"/>
      <point x="235" y="117" type="line"/>
      <point x="235" y="715" type="line"/>
      <point x="205" y="745" type="line"/>
      <point x="15" y="710" type="line"/>
      <point x="15" y="645" type="line"/>
      <point x="75" y="615" type="line"/>
      <point x="75" y="121" type="line" smooth="yes"/>
      <point x="75" y="55"/>
      <point x="106" y="13"/>
    </contour>
  </outline>
</glyph>
<glyph name="m" format="2">
  <advance width="830"/>
  <unicode hex="006D"/>
  <outline>
    <contour>
      <point x="690" y="-10" type="curve"/>
      <point x="815" y="27" type="line"/>
      <point x="815" y="97" type="line"/>
      <point x="755" y="117" type="line"/>
      <point x="755" y="440" type="line" smooth="yes"/>
      <point x="755" y="503"/>
      <point x="700" y="550"/>
      <point x="623" y="550" type="curve" smooth="yes"/>
      <point x="589" y="550"/>
      <point x="571" y="545"/>
      <point x="556" y="539" type="curve"/>
      <point x="495" y="459" type="line"/>
      <point x="479" y="375" type="line"/>
      <point x="493" y="393"/>
      <point x="526" y="403"/>
      <point x="556" y="403" type="curve" smooth="yes"/>
      <point x="572" y="403"/>
      <point x="591" y="399"/>
      <point x="600" y="393" type="curve"/>
      <point x="600" y="121" type="line" smooth="yes"/>
      <point x="600" y="55"/>
      <point x="631" y="13"/>
    </contour>
    <contour>
      <point x="110" y="-10" type="line"/>
      <point x="240" y="0" type="line"/>
      <point x="240" y="445" type="line"/>
      <point x="230" y="489"/>
      <point x="211" y="523"/>
      <point x="190" y="550" type="curve"/>
      <point x="20" y="498" type="line"/>
      <point x="20" y="433" type="line"/>
      <point x="80" y="403" type="line"/>
      <point x="80" y="20" type="line"/>
    </contour>
    <contour>
      <point x="375" y="-10" type="line"/>
      <point x="500" y="0" type="line"/>
      <point x="500" y="440" type="line"/>
      <point x="500" y="503"/>
      <point x="445" y="550"/>
      <point x="368" y="550" type="curve" smooth="yes"/>
      <point x="334" y="550"/>
      <point x="316" y="545"/>
      <point x="296" y="539" type="curve"/>
      <point x="235" y="459" type="line"/>
      <point x="219" y="375" type="line"/>
      <point x="233" y="393"/>
      <point x="266" y="403"/>
      <point x="296" y="403" type="curve" smooth="yes"/>
      <point x="317" y="403"/>
      <point x="336" y="399"/>
      <point x="345" y="393" type="curve"/>
      <point x="345" y="20" type="line"/>
    </contour>
  </outline>
</glyph>
<glyph name="n" format="2">
  <advance width="580"/>
  <unicode hex="006E"/>
  <anchor x="290" y="540" name="top"/>
  <anchor x="290" y="0" name="bottom"/>
  <outline>
    <contour>
      <point x="440" y="-10" type="curve"/>
      <point x="565" y="27" type="line"/>
      <point x="565" y="97" type="line"/>
      <point x="505" y="117" type="line"/>
      <point x="505" y="440" type="line" smooth="yes"/>
      <point x="505" y="503"/>
      <point x="450" y="550"/>
      <point x="373" y="550" type="curve" smooth="yes"/>
      <point x="336" y="550"/>
      <point x="316" y="545"/>
      <point x="296" y="539" type="curve"/>
      <point x="235" y="459" type="line"/>
      <point x="219" y="375" type="line"/>
      <point x="233" y="393"/>
      <point x="271" y="403"/>
      <point x="301" y="403" type="curve" smooth="yes"/>
      <point x="322" y="403"/>
      <point x="341" y="399"/>
      <point x="350" y="393" type="curve"/>
      <point x="350" y="121" type="line" smooth="yes"/>
      <point x="350" y="55"/>
      <point x="381" y="13"/>
    </contour>
    <contour>
      <point x="110" y="-10" type="line"/>
      <point x="240" y="0" type="line"/>
      <point x="240" y="445" type="line"/>
      <point x="230" y="489"/>
      <point x="211" y="523"/>
      <point x="190" y="550" type="curve"/>
      <point x="20" y="498" type="line"/>
      <point x="20" y="433" type="line"/>
      <point x="80" y="403" type="line"/>
      <point x="80" y="20" type="line"/>
    </contour>
  </outline>
</glyph>
<glyph name="o" format="2">
  <advance width="545"/>
  <unicode hex="006F"/>
  <anchor x="273" y="270" name="center"/>
  <anchor x="491" y="10" name="ogonek"/>
  <anchor x="273" y="540" name="top"/>
  <anchor x="525" y="540" name="topright"/>
  <anchor x="273" y="0" name="bottom"/>
  <outline>
    <contour>
      <point x="270" y="-10" type="curve" smooth="yes"/>
      <point x="318" y="-10"/>
      <point x="365" y="-4"/>
      <point x="395" y="4" type="curve"/>
      <point x="485" y="109" type="line"/>
      <point x="485" y="385" type="line" smooth="yes"/>
      <point x="485" y="491"/>
      <point x="415" y="550"/>
      <point x="291" y="550" type="curve" smooth="yes"/>
      <point x="236" y="550"/>
      <point x="181" y="543"/>
      <point x="150" y="537" type="curve"/>
      <point x="60" y="432" type="line"/>
      <point x="60" y="165" type="line" smooth="yes"/>
      <point x="60" y="45"/>
      <point x="148" y="-10"/>
    </contour>
    <contour>
      <point x="330" y="101" type="line"/>
      <point x="346" y="127" type="line"/>
      <point x="327" y="117"/>
      <point x="311" y="115"/>
      <point x="283" y="115" type="curve" smooth="yes"/>
      <point x="236" y="115"/>
      <point x="215" y="138"/>
      <point x="215" y="188" type="curve" smooth="yes"/>
      <point x="215" y="439" type="line"/>
      <point x="199" y="410" type="line"/>
      <point x="214" y="420"/>
      <point x="237" y="425"/>
      <point x="263" y="425" type="curve" smooth="yes"/>
      <point x="311" y="425"/>
      <point x="330" y="402"/>
      <point x="330" y="352" type="curve" smooth="yes"/>
    </contour>
  </outline>
</glyph>
<glyph name="p" format="2">
  <advance width="570"/>
  <unicode hex="0070"/>
  <outline>
    <contour>
      <point x="337" y="-8" type="curve" smooth="yes"/>
      <point x="373" y="-8"/>
      <point x="399" y="-1"/>
      <point x="420" y="6" type="curve"/>
      <point x="510" y="111" type="line"/>
      <point x="510" y="205"/>
      <point x="510" y="299"/>
      <point x="510" y="393" type="curve" smooth="yes"/>
      <point x="510" y="499"/>
      <point x="437" y="548"/>
      <point x="343" y="548" type="curve" smooth="yes"/>
      <point x="317" y="548"/>
      <point x="292" y="544"/>
      <point x="283" y="539" type="curve"/>
      <point x="218" y="424" type="line"/>
      <point x="218" y="401" type="line"/>
      <point x="235" y="410"/>
      <point x="262" y="418"/>
      <point x="292" y="418" type="curve" smooth="yes"/>
      <point x="332" y="418"/>
      <point x="355" y="397"/>
      <point x="355" y="350" type="curve" smooth="yes"/>
      <point x="355" y="271"/>
      <point x="355" y="192"/>
      <point x="355" y="113" type="curve"/>
      <point x="371" y="142" type="line"/>
      <point x="352" y="127"/>
      <point x="323" y="123"/>
      <point x="291" y="123" type="curve" smooth="yes"/>
      <point x="263" y="123"/>
      <point x="244" y="128"/>
      <point x="223" y="141" type="curve"/>
      <point x="166" y="78" type="line"/>
      <point x="214" y="19"/>
      <point x="270" y="-8"/>
    </contour>
    <contour>
      <point x="110" y="-210" type="line"/>
      <point x="235" y="-200" type="line"/>
      <point x="235" y="90" type="line"/>
      <point x="240" y="103" type="line"/>
      <point x="240" y="445" type="line"/>
      <point x="230" y="489"/>
      <point x="211" y="523"/>
      <point x="190" y="550" type="curve"/>
      <point x="20" y="498" type="line"/>
      <point x="20" y="433" type="line"/>
      <point x="80" y="403" type="line"/>
      <point x="80" y="-180" type="line"/>
    </contour>
  </outline>
</glyph>
<glyph name="r" format="2">
  <advance width="410"/>
  <unicode hex="0072"/>
  <outline>
    <contour>
      <point x="110" y="-10" type="line"/>
      <point x="240" y="0" type="line"/>
      <point x="240" y="445" type="line"/>
      <point x="230" y="489"/>
      <point x="211" y="523"/>
      <point x="190" y="550" type="curve"/>
      <point x="20" y="498" type="line"/>
      <point x="20" y="433" type="line"/>
      <point x="80" y="403" type="line"/>
      <point x="80" y="20" type="line"/>
    </contour>
    <contour>
      <point x="235" y="375" type="line"/>
      <point x="258" y="384"/>
      <point x="297" y="390"/>
      <point x="325" y="390" type="curve" smooth="yes"/>
      <point x="345" y="390"/>
      <point x="365" y="388"/>
      <point x="380" y="386" type="curve"/>
      <point x="395" y="539" type="line"/>
      <point x="380" y="546"/>
      <point x="361" y="550"/>
      <point x="341" y="550" type="curve" smooth="yes"/>
      <point x="321" y="550"/>
      <point x="306" y="546"/>
      <point x="286" y="539" type="curve"/>
      <point x="235" y="459" type="line"/>
    </contour>
  </outline>
</glyph>
<glyph name="s" format="2">
  <advance width="456"/>
  <unicode hex="0073"/>
  <outline>
    <contour>
      <point x="200" y="-10" type="curve" smooth="yes"/>
      <point x="248" y="-10"/>
      <point x="296" y="-5"/>
      <point x="335" y="6" type="curve"/>
      <point x="426" y="111" type="line"/>
      <point x="426" y="184" type="line" smooth="yes"/>
      <point x="426" y="261"/>
      <point x="373" y="292"/>
      <point x="305" y="314" type="curve" smooth="yes"/>
      <point x="255" y="330"/>
      <point x="185" y="343"/>
      <point x="185" y="384" type="curve" smooth="yes"/>
      <point x="185" y="423" type="line"/>
      <point x="166" y="389" type="line"/>
      <point x="185" y="400"/>
      <point x="211" y="409"/>
      <point x="258" y="409" type="curve" smooth="yes"/>
      <point x="305" y="409"/>
      <point x="352" y="401"/>
      <point x="389" y="387" type="curve"/>
      <point x="417" y="521" type="line"/>
      <point x="388" y="535"/>
      <point x="322" y="549"/>
      <point x="262" y="549" type="curve" smooth="yes"/>
      <point x="192" y="549"/>
      <point x="151" y="540"/>
      <point x="118" y="532" type="curve"/>
      <point x="38" y="432" type="line"/>
      <point x="38" y="371" type="line" smooth="yes"/>
      <point x="38" y="288"/>
      <point x="76" y="251"/>
      <point x="132" y="230" type="curve" smooth="yes"/>
      <point x="194" y="207"/>
      <point x="278" y="199"/>
      <point x="278" y="154" type="curve" smooth="yes"/>
      <point x="278" y="141"/>
      <point x="278" y="128"/>
      <point x="278" y="115" type="curve"/>
      <point x="295" y="142" type="line"/>
      <point x="276" y="133"/>
      <point x="244" y="130"/>
      <point x="194" y="130" type="curve" smooth="yes"/>
      <point x="157" y="130"/>
      <point x="103" y="140"/>
      <point x="63" y="154" type="curve"/>
      <point x="35" y="19" type="line"/>
      <point x="73" y="4"/>
      <point x="132" y="-10"/>
    </contour>
  </outline>
</glyph>
<glyph name="t" format="2">
  <advance width="420"/>
  <unicode hex="0074"/>
  <outline>
    <contour>
      <point x="270" y="-10" type="curve"/>
      <point x="283" y="-10"/>
      <point x="297" y="-9"/>
      <point x="306" y="-5" type="curve" smooth="yes"/>
      <point x="405" y="35" type="line"/>
      <point x="405" y="128" type="line"/>
      <point x="385" y="126"/>
      <point x="352" y="124"/>
      <point x="326" y="124" type="curve" smooth="yes"/>
      <point x="275" y="124"/>
      <point x="257" y="158"/>
      <point x="257" y="226" type="curve" smooth="yes"/>
      <point x="257" y="625" type="line"/>
      <point x="227" y="655" type="line"/>
      <point x="97" y="620" type="line"/>
      <point x="97" y="184" type="line" smooth="yes"/>
      <point x="97" y="61"/>
      <point x="160" y="-10"/>
    </contour>
    <contour>
      <point x="359" y="421" type="line"/>
      <point x="390" y="446" type="line"/>
      <point x="390" y="531" type="line"/>
      <point x="35" y="521" type="line"/>
      <point x="15" y="501" type="line"/>
      <point x="19" y="426" type="line"/>
    </contour>
  </outline>
</glyph>
<glyph name="u" format="2">
  <advance width="580"/>
  <unicode hex="0075"/>
  <anchor x="522" y="10" name="ogonek"/>
  <anchor x="290" y="540" name="top"/>
  <anchor x="560" y="540" name="topright"/>
  <anchor x="290" y="0" name="bottom"/>
  <outline>
    <contour>
      <point x="215" y="-10" type="curve" smooth="yes"/>
      <point x="256" y="-10"/>
      <point x="284" y="0"/>
      <point x="308" y="9" type="curve"/>
      <point x="367" y="116" type="line"/>
      <point x="356" y="156" type="line"/>
      <point x="336" y="143"/>
      <point x="312" y="137"/>
      <point x="286" y="137" type="curve" smooth="yes"/>
      <point x="267" y="137"/>
      <point x="252" y="140"/>
      <point x="235" y="146" type="curve"/>
      <point x="235" y="435" type="line"/>
      <point x="225" y="479"/>
      <point x="209" y="511"/>
      <point x="185" y="540" type="curve"/>
      <point x="15" y="488" type="line"/>
      <point x="15" y="423" type="line"/>
      <point x="75" y="393" type="line"/>
      <point x="75" y="158" type="line" smooth="yes"/>
      <point x="75" y="43"/>
      <point x="130" y="-10"/>
    </contour>
    <contour>
      <point x="435" y="-10" type="curve"/>
      <point x="565" y="27" type="line"/>
      <point x="565" y="97" type="line"/>
      <point x="505" y="117" type="line"/>
      <point x="505" y="515" type="line"/>
      <point x="475" y="545" type="line"/>
      <point x="295" y="510" type="line"/>
      <point x="295" y="445" type="line"/>
      <point x="345" y="415" type="line"/>
      <point x="345" y="121" type="line"/>
      <point x="345" y="55"/>
      <point x="376" y="13"/>
    </contour>
  </outline>
</glyph>
<glyph name="v" format="2">
  <advance width="520"/>
  <unicode hex="0076"/>
  <outline>
    <contour>
      <point x="268" y="-10" type="curve" smooth="yes"/>
      <point x="290" y="-10"/>
      <point x="320" y="-4"/>
      <point x="339" y="-1" type="curve"/>
      <point x="330" y="108" type="line"/>
      <point x="319" y="109"/>
      <point x="309" y="112"/>
      <point x="298" y="116" type="curve"/>
      <point x="185" y="545" type="line"/>
      <point x="-10" y="521" type="line"/>
      <point x="-10" y="456" type="line"/>
      <point x="40" y="426" type="line"/>
      <point x="127" y="153" type="line" smooth="yes"/>
      <point x="172" y="12"/>
      <point x="183" y="-10"/>
    </contour>
    <contour>
      <point x="339" y="-1" type="line"/>
      <point x="510" y="465" type="line"/>
      <point x="500" y="540" type="line"/>
      <point x="308" y="540" type="line"/>
      <point x="303" y="476" type="line"/>
      <point x="363" y="446" type="line"/>
      <point x="295" y="106" type="line"/>
    </contour>
  </outline>
</glyph>
<glyph name="w" format="2">
  <advance width="799"/>
  <unicode hex="0077"/>
  <outline>
    <contour>
      <point x="258" y="-10" type="curve" smooth="yes"/>
      <point x="280" y="-10"/>
      <point x="320" y="-4"/>
      <point x="339" y="-1" type="curve"/>
      <point x="320" y="108" type="line"/>
      <point x="309" y="109"/>
      <point x="299" y="112"/>
      <point x="288" y="116" type="curve"/>
      <point x="185" y="545" type="line"/>
      <point x="-10" y="521" type="line"/>
      <point x="-10" y="456" type="line"/>
      <point x="40" y="426" type="line"/>
      <point x="117" y="153" type="line" smooth="yes"/>
      <point x="153" y="27"/>
      <point x="163" y="-10"/>
    </contour>
    <contour>
      <point x="339" y="-1" type="line"/>
      <point x="435" y="465" type="line"/>
      <point x="470" y="540" type="line"/>
      <point x="342" y="540" type="line"/>
      <point x="280" y="106" type="line"/>
    </contour>
    <contour>
      <point x="557" y="-10" type="curve" smooth="yes"/>
      <point x="579" y="-10"/>
      <point x="609" y="-4"/>
      <point x="628" y="-1" type="curve"/>
      <point x="619" y="108" type="line"/>
      <point x="608" y="109"/>
      <point x="598" y="112"/>
      <point x="587" y="116" type="curve"/>
      <point x="479" y="545" type="line"/>
      <point x="342" y="540" type="line"/>
      <point x="377" y="354" type="line"/>
      <point x="426" y="153" type="line" smooth="yes"/>
      <point x="457" y="25"/>
      <point x="470" y="-10"/>
    </contour>
    <contour>
      <point x="628" y="-1" type="line"/>
      <point x="789" y="465" type="line"/>
      <point x="779" y="540" type="line"/>
      <point x="597" y="540" type="line"/>
      <point x="587" y="476" type="line"/>
      <point x="642" y="446" type="line"/>
      <point x="584" y="106" type="line"/>
    </contour>
  </outline>
</glyph>
<glyph name="x" format="2">
  <advance width="510"/>
  <unicode hex="0078"/>
  <outline>
    <contour>
      <point x="258" y="259" type="line"/>
      <point x="312" y="226" type="line"/>
      <point x="490" y="465" type="line"/>
      <point x="480" y="540" type="line"/>
      <point x="308" y="540" type="line"/>
      <point x="298" y="476" type="line"/>
      <point x="343" y="446" type="line"/>
    </contour>
    <contour>
      <point x="5" y="456" type="line"/>
      <point x="67" y="426" type="line"/>
      <point x="178" y="249" type="line"/>
      <point x="206" y="226" type="line"/>
      <point x="272" y="109" type="line" smooth="yes"/>
      <point x="309" y="43"/>
      <point x="331" y="13"/>
      <point x="390" y="-10" type="curve"/>
      <point x="505" y="27" type="line"/>
      <point x="505" y="97" type="line"/>
      <point x="445" y="122" type="line"/>
      <point x="330" y="300" type="line"/>
      <point x="301" y="319" type="line"/>
      <point x="182" y="545" type="line"/>
      <point x="5" y="521" type="line"/>
    </contour>
    <contour>
      <point x="254" y="261" type="line"/>
      <point x="204" y="305" type="line"/>
      <point x="25" y="74" type="line"/>
      <point x="35" y="0" type="line"/>
      <point x="207" y="0" type="line"/>
      <point x="217" y="63" type="line"/>
      <point x="182" y="93" type="line"/>
    </contour>
  </outline>
</glyph>
<glyph name="y" format="2">
  <advance width="499"/>
  <unicode hex="0079"/>
  <outline>
    <contour>
      <point x="95" y="-210" type="line"/>
      <point x="142" y="-208"/>
      <point x="219" y="-195"/>
      <point x="251" y="-172" type="curve" smooth="yes"/>
      <point x="287" y="-145"/>
      <point x="303" y="-122"/>
      <point x="344" y="0" type="curve" smooth="yes"/>
      <point x="499" y="465" type="line"/>
      <point x="489" y="540" type="line"/>
      <point x="297" y="540" type="line"/>
      <point x="292" y="476" type="line"/>
      <point x="355" y="446" type="line"/>
      <point x="281" y="94" type="line"/>
      <point x="296" y="94" type="line"/>
      <point x="175" y="545" type="line"/>
      <point x="-20" y="521" type="line"/>
      <point x="-20" y="456" type="line"/>
      <point x="30" y="426" type="line"/>
      <point x="166" y="20" type="line"/>
      <point x="252" y="-11" type="line"/>
      <point x="272" y="72" type="line"/>
      <point x="246" y="25"/>
      <point x="204" y="-39"/>
      <point x="170" y="-80" type="curve"/>
      <point x="140" y="-98"/>
      <point x="102" y="-115"/>
      <point x="70" y="-130" type="curve"/>
    </contour>
  </outline>
</glyph>
<glyph name="z" format="2">
  <advance width="464"/>
  <unicode hex="007A"/>
  <outline>
    <contour>
      <point x="426" y="400" type="line"/>
      <point x="411" y="540" type="line"/>
      <point x="50" y="545" type="line"/>
      <point x="20" y="515" type="line"/>
      <point x="37" y="338" type="line"/>
      <point x="127" y="338" type="line"/>
      <point x="136" y="405" type="line"/>
      <point x="334" y="405" type="line"/>
      <point x="334" y="452" type="line"/>
      <point x="34" y="100" type="line"/>
      <point x="49" y="0" type="line"/>
      <point x="404" y="0" type="line"/>
      <point x="434" y="30" type="line"/>
      <point x="429" y="140" type="line"/>
      <point x="140" y="130" type="line"/>
      <point x="149" y="90" type="line"/>
    </contour>
  </outline>
</glyph>
<glyph name="dotlessi" format="2">
  <advance width="310"/>
  <unicode hex="0131"/>
  <anchor x="279" y="10" name="ogonek"/>
  <anchor x="155" y="0" name="bottom"/>
  <anchor x="155" y="540" name="top"/>
  <outline>
    <contour>
      <point x="165" y="-10" type="curve"/>
      <point x="295" y="27" type="line"/>
      <point x="295" y="97" type="line"/>
      <point x="235" y="117" type="line"/>
      <point x="235" y="515" type="line"/>
      <point x="205" y="545" type="line"/>
      <point x="15" y="510" type="line"/>
      <point x="15" y="445" type="line"/>
      <point x="75" y="415" type="line"/>
      <point x="75" y="121" type="line" smooth="yes"/>
      <point x="75" y="55"/>
      <point x="106" y="13"/>
    </contour>
  </outline>
</glyph>
<glyph name="acutecomb" format="2">
  <advance width="387"/>
  <unicode hex="0301"/>
  <anchor x="195" y="800" name="top"/>
  <anchor x="195" y="540" name="_top"/>
  <outline>
    <contour>
      <point x="348" y="683" type="curve"/>
      <point x="349" y="729"/>
      <point x="319" y="798"/>
      <point x="274" y="814" type="curve"/>
      <point x="230" y="786"/>
      <point x="90" y="681"/>
      <point x="45" y="643" type="curve"/>
      <point x="73" y="592" type="line"/>
      <point x="120" y="604"/>
      <point x="292" y="664"/>
    </contour>
  </outline>
</glyph>
<glyph name="tildecomb" format="2">
  <advance width="475"/>
  <unicode hex="0303"/>
  <anchor x="238" y="749" name="top"/>
  <anchor x="238" y="540" name="_top"/>
  <outline>
    <contour>
      <point x="334" y="719" type="curve"/>
      <point x="384" y="762" type="line"/>
      <point x="384" y="762"/>
      <point x="418" y="737"/>
      <point x="430" y="722" type="curve"/>
      <point x="411" y="660"/>
      <point x="371" y="611"/>
      <point x="304" y="611" type="curve" smooth="yes"/>
      <point x="238" y="611"/>
      <point x="184" y="636"/>
      <point x="136" y="660" type="curve"/>
      <point x="90" y="617" type="line"/>
      <point x="90" y="617"/>
      <point x="59" y="633"/>
      <point x="45" y="648" type="curve"/>
      <point x="59" y="715"/>
      <point x="112" y="779"/>
      <point x="173" y="779" type="curve" smooth="yes"/>
      <point x="227" y="779"/>
      <point x="278" y="754"/>
    </contour>
  </outline>
</glyph>
<glyph name="uni0307" format="2">
  <advance width="310"/>
  <unicode hex="0307"/>
  <anchor x="155" y="540" name="_top"/>
  <outline>
    <contour>
      <point x="211" y="604" type="curve"/>
      <point x="233" y="625"/>
      <point x="246" y="660"/>
      <point x="246" y="695" type="curve" smooth="yes"/>
      <point x="246" y="730"/>
      <point x="235" y="754"/>
      <point x="219" y="775" type="curve"/>
      <point x="185" y="775"/>
      <point x="87" y="760"/>
      <point x="75" y="751" type="curve"/>
      <point x="63" y="711"/>
      <point x="67" y="641"/>
      <point x="88" y="614" type="curve"/>
      <point x="128" y="605"/>
      <point x="179" y="604"/>
    </contour>
  </outline>
</glyph>
<glyph name="uni0308" format="2">
  <advance width="494"/>
  <unicode hex="0308"/>
  <anchor x="247" y="895" name="top"/>
  <anchor x="247" y="540" name="_top"/>
  <outline>
    <contour>
      <point x="113" y="607" type="curve" smooth="yes"/>
      <point x="140" y="607"/>
      <point x="164" y="616"/>
      <point x="183" y="625" type="curve"/>
      <point x="199" y="642"/>
      <point x="206" y="664"/>
      <point x="206" y="685" type="curve" smooth="yes"/>
      <point x="206" y="724"/>
      <point x="181" y="760"/>
      <point x="133" y="760" type="curve" smooth="yes"/>
      <point x="108" y="760"/>
      <point x="83" y="752"/>
      <point x="65" y="743" type="curve"/>
      <point x="48" y="726"/>
      <point x="41" y="704"/>
      <point x="41" y="683" type="curve" smooth="yes"/>
      <point x="41" y="644"/>
      <point x="67" y="607"/>
    </contour>
    <contour>
      <point x="359" y="607" type="curve" smooth="yes"/>
      <point x="386" y="607"/>
      <point x="410" y="616"/>
      <point x="428" y="625" type="curve"/>
      <point x="445" y="642"/>
      <point x="452" y="664"/>
      <point x="452" y="685" type="curve" smooth="yes"/>
      <point x="452" y="724"/>
      <point x="426" y="760"/>
      <point x="379" y="760" type="curve" smooth="yes"/>
      <point x="353" y="760"/>
      <point x="329" y="752"/>
      <point x="310" y="743" type="curve"/>
      <point x="294" y="726"/>
      <point x="287" y="704"/>
      <point x="287" y="683" type="curve" smooth="yes"/>
      <point x="287" y="644"/>
      <point x="312" y="607"/>
    </contour>
  </outline>
</glyph>
<glyph name="quoteleft" format="2">
  <advance width="272"/>
  <unicode hex="2018"/>
  <outline>
    <contour>
      <point x="144" y="423" type="curve" smooth="yes"/>
      <point x="177" y="423"/>
      <point x="202" y="437"/>
      <point x="222" y="456" type="curve"/>
      <point x="212" y="492"/>
      <point x="196" y="534"/>
      <point x="178" y="572" type="curve"/>
      <point x="203" y="729" type="line"/>
      <point x="152" y="750" type="line"/>
      <point x="99" y="684"/>
      <point x="50" y="596"/>
      <point x="50" y="526" type="curve" smooth="yes"/>
      <point x="50" y="468"/>
      <point x="88" y="423"/>
    </contour>
  </outline>
</glyph>
<glyph name=".notdef" format="2">
  <advance width="724"/>
  <outline>
    <contour>
      <point x="100" y="-202" type="line"/>
      <point x="624" y="-202" type="line"/>
      <point x="624" y="740" type="line"/>
      <point x="100" y="740" type="line"/>
    </contour>
    <contour>
      <point x="123" y="-172" type="line"/>
      <point x="155" y="-172" type="line"/>
      <point x="604" y="710" type="line"/>
      <point x="572" y="710" type="line"/>
    </contour>
    <contour>
      <point x="130" y="-172" type="line"/>
      <point x="130" y="710" type="line"/>
      <point x="594" y="710" type="line"/>
      <point x="594" y="-172" type="line"/>
    </contour>
    <contour>
      <point x="569" y="-172" type="line"/>
      <point x="601" y="-172" type="line"/>
      <point x="152" y="710" type="line"/>
      <point x="120" y="710" type="line"/>
    </contour>
  </outline>
</glyph>
<glyph name="_part.TailFigures" format="2">
	<advance width="425"/>
	<outline>
		<contour>
			<point x="285" y="53" type="line"/>
			<point x="285" y="-15" type="line"/>
			<point x="305" y="18" type="line"/>
			<point x="280" y="5"/>
			<point x="240" y="-5"/>
			<point x="201" y="-5" type="curve" smooth="yes"/>
			<point x="150" y="-5"/>
			<point x="103" y="15"/>
			<point x="66" y="39" type="curve"/>
			<point x="20" y="-71" type="line"/>
			<point x="67" y="-105"/>
			<point x="128" y="-130"/>
			<point x="207" y="-130" type="curve" smooth="yes"/>
			<point x="281" y="-130"/>
			<point x="344" y="-100"/>
			<point x="383" y="-68" type="curve"/>
			<point x="425" y="32" type="line"/>
			<point x="425" y="53" type="line"/>
		</contour>
	</outline>
</glyph>
<glyph name="_part.bottomFigures" format="2">
	<advance width="425"/>
	<outline>
		<contour>
			<point x="19" y="0" type="line"/>
			<point x="395" y="0" type="line"/>
			<point x="425" y="30" type="line"/>
			<point x="425" y="120" type="line"/>
			<point x="113" y="109" type="line"/>
			<point x="64" y="109" type="line"/>
			<point x="0" y="94" type="line"/>
		</contour>
	</outline>
</glyph>
<glyph name="_part.sixBowl" format="2">
	<advance width="465"/>
	<outline>
		<contour>
			<point x="175" y="461" type="line"/>
			<point x="35" y="450" type="line"/>
			<point x="35" y="165" type="line" smooth="yes"/>
			<point x="35" y="45"/>
			<point x="128" y="-10"/>
			<point x="250" y="-10" type="curve" smooth="yes"/>
			<point x="288" y="-10"/>
			<point x="320" y="-4"/>
			<point x="340" y="4" type="curve"/>
			<point x="430" y="109" type="line"/>
			<point x="430" y="264" type="line" smooth="yes"/>
			<point x="430" y="374"/>
			<point x="373" y="429"/>
			<point x="283" y="429" type="curve" smooth="yes"/>
			<point x="264" y="429"/>
			<point x="245" y="427"/>
			<point x="233" y="424" type="curve"/>
			<point x="161" y="338" type="line"/>
			<point x="161" y="289" type="line"/>
			<point x="179" y="299"/>
			<point x="214" y="304"/>
			<point x="232" y="304" type="curve" smooth="yes"/>
			<point x="263" y="304"/>
			<point x="290" y="285"/>
			<point x="290" y="231" type="curve" smooth="yes"/>
			<point x="290" y="101" type="line"/>
			<point x="306" y="127" type="line"/>
			<point x="295" y="117"/>
			<point x="278" y="115"/>
			<point x="248" y="115" type="curve" smooth="yes"/>
			<point x="201" y="115"/>
			<point x="175" y="138"/>
			<point x="175" y="188" type="curve" smooth="yes"/>
		</contour>
	</outline>
</glyph>
<glyph name="_part.tailFiguresOld" format="2">
	<advance width="404"/>
	<anchor x="404" y="120" name="connect"/>
	<anchor x="0" y="120" name="_connect"/>
	<outline>
		<contour>
			<point x="404" y="120" type="curve"/>
			<point x="264" y="109" type="line"/>
			<point x="264" y="39"/>
			<point x="176" y="-27"/>
			<point x="9" y="-40" type="curve"/>
			<point x="13" y="-120" type="line"/>
			<point x="43" y="-130" type="line"/>
			<point x="205" y="-130"/>
			<point x="404" y="-56"/>
		</contour>
	</outline>
</glyph>
<glyph name="_part.threeTop" format="2">
	<advance width="415"/>
	<outline>
		<contour>
			<point x="415" y="173" type="line"/>
			<point x="415" y="205" type="line" smooth="yes"/>
			<point x="415" y="326"/>
			<point x="363" y="389"/>
			<point x="236" y="389" type="curve" smooth="yes"/>
			<point x="227" y="389"/>
			<point x="219" y="389"/>
			<point x="210" y="389" type="curve"/>
			<point x="219" y="355" type="line"/>
			<point x="400" y="570" type="line"/>
			<point x="370" y="680" type="line"/>
			<point x="30" y="680" type="line"/>
			<point x="0" y="650" type="line"/>
			<point x="16" y="470" type="line"/>
			<point x="111" y="470" type="line"/>
			<point x="138" y="639" type="line"/>
			<point x="60" y="560" type="line"/>
			<point x="317" y="560" type="line"/>
			<point x="288" y="593" type="line"/>
			<point x="109" y="336" type="line"/>
			<point x="143" y="284" type="line"/>
			<point x="152" y="285"/>
			<point x="170" y="286"/>
			<point x="187" y="286" type="curve" smooth="yes"/>
			<point x="247" y="286"/>
			<point x="275" y="263"/>
			<point x="275" y="194" type="curve" smooth="yes"/>
			<point x="275" y="173" type="line"/>
		</contour>
	</outline>
</glyph>
<glyph name="_part.topFive" format="2">
	<advance width="465"/>
	<outline>
		<contour>
			<point x="425" y="53" type="line"/>
			<point x="425" y="94" type="line" smooth="yes"/>
			<point x="425" y="212"/>
			<point x="357" y="287"/>
			<point x="235" y="287" type="curve" smooth="yes"/>
			<point x="197" y="287"/>
			<point x="156" y="281"/>
			<point x="119" y="276" type="curve"/>
			<point x="163" y="237" type="line"/>
			<point x="164" y="473" type="line"/>
			<point x="110" y="440" type="line"/>
			<point x="354" y="440" type="line"/>
			<point x="276" y="519" type="line"/>
			<point x="299" y="355" type="line"/>
			<point x="389" y="355" type="line"/>
			<point x="407" y="530" type="line"/>
			<point x="377" y="560" type="line"/>
			<point x="110" y="560" type="line"/>
			<point x="40" y="490" type="line"/>
			<point x="50" y="221" type="line"/>
			<point x="108" y="158" type="line"/>
			<point x="133" y="164"/>
			<point x="164" y="170"/>
			<point x="183" y="170" type="curve" smooth="yes"/>
			<point x="257" y="170"/>
			<point x="285" y="135"/>
			<point x="285" y="81" type="curve" smooth="yes"/>
			<point x="285" y="53" type="line"/>
		</contour>
	</outline>
</glyph>
<glyph name="a.ss01" format="2">
  <advance width="564"/>
  <anchor x="489" y="10" name="ogonek"/>
  <anchor x="276" y="0" name="bottom"/>
  <anchor x="276" y="540" name="top"/>
  <outline>
    <contour>
      <point x="227" y="-10" type="curve"/>
      <point x="253" y="-10"/>
      <point x="278" y="-6"/>
      <point x="287" y="-1" type="curve"/>
      <point x="352" y="115" type="line"/>
      <point x="352" y="138" type="line"/>
      <point x="335" y="129"/>
      <point x="308" y="121"/>
      <point x="278" y="121" type="curve"/>
      <point x="238" y="121"/>
      <point x="215" y="142"/>
      <point x="215" y="189" type="curve"/>
      <point x="215" y="431" type="line"/>
      <point x="199" y="402" type="line"/>
      <point x="217" y="416"/>
      <point x="244" y="421"/>
      <point x="276" y="421" type="curve"/>
      <point x="304" y="421"/>
      <point x="326" y="416"/>
      <point x="347" y="403" type="curve"/>
      <point x="404" y="466" type="line"/>
      <point x="357" y="522"/>
      <point x="297" y="546"/>
      <point x="233" y="546" type="curve"/>
      <point x="197" y="546"/>
      <point x="171" y="540"/>
      <point x="150" y="533" type="curve"/>
      <point x="60" y="428" type="line"/>
      <point x="60" y="146" type="line"/>
      <point x="60" y="40"/>
      <point x="133" y="-10"/>
    </contour>
    <contour>
      <point x="490" y="117" type="line"/>
      <point x="490" y="540" type="line"/>
      <point x="425" y="540" type="line"/>
      <point x="330" y="412" type="line"/>
      <point x="330" y="120" type="line" smooth="yes"/>
      <point x="330" y="51"/>
      <point x="353" y="13"/>
      <point x="419" y="-10" type="curve"/>
      <point x="549" y="26" type="line"/>
      <point x="549" y="97" type="line"/>
    </contour>
  </outline>
</glyph>
<glyph name="eight.osf" format="2">
  <advance width="465"/>
  <outline>
    <contour>
      <point x="435" y="165" type="line" smooth="yes"/>
      <point x="435" y="283"/>
      <point x="364" y="331"/>
      <point x="297" y="381" type="curve" smooth="yes"/>
      <point x="238" y="426"/>
      <point x="170" y="469"/>
      <point x="170" y="544" type="curve" smooth="yes"/>
      <point x="170" y="579" type="line"/>
      <point x="154" y="553" type="line"/>
      <point x="164" y="558"/>
      <point x="197" y="565"/>
      <point x="232" y="565" type="curve" smooth="yes"/>
      <point x="279" y="565"/>
      <point x="300" y="537"/>
      <point x="300" y="492" type="curve" smooth="yes"/>
      <point x="300" y="444"/>
      <point x="273" y="395"/>
      <point x="256" y="373" type="curve"/>
      <point x="309" y="331" type="line"/>
      <point x="425" y="467" type="line"/>
      <point x="425" y="483"/>
      <point x="425" y="499"/>
      <point x="425" y="515" type="curve" smooth="yes"/>
      <point x="425" y="635"/>
      <point x="349" y="690"/>
      <point x="243" y="690" type="curve" smooth="yes"/>
      <point x="203" y="690"/>
      <point x="155" y="684"/>
      <point x="130" y="676" type="curve"/>
      <point x="40" y="571" type="line"/>
      <point x="40" y="510" type="line" smooth="yes"/>
      <point x="40" y="394"/>
      <point x="122" y="341"/>
      <point x="189" y="291" type="curve" smooth="yes"/>
      <point x="244" y="249"/>
      <point x="305" y="209"/>
      <point x="305" y="134" type="curve" smooth="yes"/>
      <point x="305" y="123"/>
      <point x="305" y="111"/>
      <point x="305" y="100" type="curve"/>
      <point x="321" y="127" type="line"/>
      <point x="308" y="117"/>
      <point x="253" y="115"/>
      <point x="223" y="115" type="curve" smooth="yes"/>
      <point x="176" y="115"/>
      <point x="155" y="138"/>
      <point x="155" y="188" type="curve" smooth="yes"/>
      <point x="155" y="215"/>
      <point x="165" y="277"/>
      <point x="192" y="326" type="curve"/>
      <point x="120" y="348" type="line"/>
      <point x="30" y="244" type="line"/>
      <point x="30" y="218"/>
      <point x="30" y="191"/>
      <point x="30" y="165" type="curve" smooth="yes"/>
      <point x="30" y="45"/>
      <point x="118" y="-10"/>
      <point x="240" y="-10" type="curve" smooth="yes"/>
      <point x="273" y="-10"/>
      <point x="325" y="-4"/>
      <point x="345" y="4" type="curve"/>
      <point x="435" y="109" type="line"/>
    </contour>
  </outline>
</glyph>
<glyph name="four.osf" format="2">
  <advance width="465"/>
  <outline>
    <contour>
      <point x="250" y="560" type="line"/>
      <point x="10" y="94" type="line"/>
      <point x="29" y="0" type="line"/>
      <point x="425" y="0" type="line"/>
      <point x="455" y="30" type="line"/>
      <point x="455" y="120" type="line"/>
      <point x="63" y="100" type="line"/>
      <point x="114" y="82" type="line"/>
      <point x="332" y="505" type="line"/>
      <point x="260" y="505" type="line"/>
      <point x="260" y="-100" type="line"/>
      <point x="295" y="-130" type="line"/>
      <point x="400" y="-120" type="line"/>
      <point x="400" y="560" type="line"/>
    </contour>
  </outline>
</glyph>
<glyph name="one.lf" format="2">
  <advance width="465"/>
  <outline>
    <contour>
      <point x="30" y="0" type="line"/>
      <point x="435" y="0" type="line"/>
      <point x="435" y="80" type="line"/>
      <point x="306" y="100" type="line"/>
      <point x="306" y="660" type="line"/>
      <point x="276" y="690" type="line"/>
      <point x="51" y="650" type="line"/>
      <point x="51" y="580" type="line"/>
      <point x="161" y="560" type="line"/>
      <point x="161" y="100" type="line"/>
      <point x="30" y="80" type="line"/>
    </contour>
  </outline>
</glyph>
<glyph name="one.osf" format="2">
  <advance width="465"/>
  <outline>
    <contour>
      <point x="30" y="0" type="line"/>
      <point x="435" y="0" type="line"/>
      <point x="435" y="80" type="line"/>
      <point x="306" y="100" type="line"/>
      <point x="306" y="540" type="line"/>
      <point x="276" y="570" type="line"/>
      <point x="51" y="530" type="line"/>
      <point x="51" y="460" type="line"/>
      <point x="161" y="440" type="line"/>
      <point x="161" y="100" type="line"/>
      <point x="30" y="80" type="line"/>
    </contour>
  </outline>
</glyph>
<glyph name="q.ss01" format="2">
  <advance width="570"/>
  <outline>
    <contour>
      <point x="227" y="-10" type="curve" smooth="yes"/>
      <point x="253" y="-10"/>
      <point x="278" y="-6"/>
      <point x="287" y="-1" type="curve"/>
      <point x="352" y="114" type="line"/>
      <point x="352" y="137" type="line"/>
      <point x="335" y="128"/>
      <point x="308" y="120"/>
      <point x="278" y="120" type="curve" smooth="yes"/>
      <point x="238" y="120"/>
      <point x="215" y="141"/>
      <point x="215" y="188" type="curve" smooth="yes"/>
      <point x="215" y="430" type="line"/>
      <point x="199" y="401" type="line"/>
      <point x="217" y="415"/>
      <point x="244" y="420"/>
      <point x="276" y="420" type="curve" smooth="yes"/>
      <point x="304" y="420"/>
      <point x="326" y="415"/>
      <point x="347" y="402" type="curve"/>
      <point x="404" y="465" type="line"/>
      <point x="357" y="521"/>
      <point x="297" y="546"/>
      <point x="233" y="546" type="curve" smooth="yes"/>
      <point x="197" y="546"/>
      <point x="171" y="539"/>
      <point x="150" y="532" type="curve"/>
      <point x="60" y="427" type="line"/>
      <point x="60" y="145" type="line" smooth="yes"/>
      <point x="60" y="39"/>
      <point x="133" y="-10"/>
    </contour>
    <contour>
      <point x="365" y="-207" type="line"/>
      <point x="550" y="-172" type="line"/>
      <point x="550" y="-107" type="line"/>
      <point x="490" y="-77" type="line"/>
      <point x="490" y="540" type="line"/>
      <point x="425" y="540" type="line"/>
      <point x="330" y="411" type="line"/>
      <point x="330" y="103" type="line"/>
      <point x="335" y="90" type="line"/>
      <point x="335" y="-177" type="line"/>
    </contour>
  </outline>
</glyph>
<glyph name="seven.osf" format="2">
  <advance width="465"/>
  <outline>
    <contour>
      <point x="240" y="-120" type="line"/>
      <point x="311" y="124" type="line"/>
      <point x="445" y="450" type="line"/>
      <point x="415" y="560" type="line"/>
      <point x="45" y="560" type="line"/>
      <point x="15" y="530" type="line"/>
      <point x="30" y="350" type="line"/>
      <point x="120" y="350" type="line"/>
      <point x="163" y="519" type="line"/>
      <point x="75" y="430" type="line"/>
      <point x="362" y="430" type="line"/>
      <point x="306" y="476" type="line"/>
      <point x="195" y="164" type="line"/>
      <point x="83" y="-76" type="line"/>
      <point x="126" y="-130" type="line"/>
    </contour>
  </outline>
</glyph>
<glyph name="six.lf" format="2">
  <advance width="465"/>
  <outline>
    <contour>
      <point x="35" y="450" type="curve"/>
      <point x="175" y="461" type="line"/>
      <point x="175" y="537"/>
      <point x="211" y="564"/>
      <point x="279" y="564" type="curve" smooth="yes"/>
      <point x="308" y="564"/>
      <point x="354" y="561"/>
      <point x="385" y="556" type="curve"/>
      <point x="401" y="661" type="line"/>
      <point x="376" y="682" type="line"/>
      <point x="348" y="686"/>
      <point x="300" y="690"/>
      <point x="266" y="690" type="curve" smooth="yes"/>
      <point x="93" y="690"/>
      <point x="35" y="601"/>
    </contour>
    <component base="_part.sixBowl"/>
  </outline>
</glyph>
<glyph name="six.osf" format="2">
  <advance width="465"/>
  <outline>
    <contour>
      <point x="180" y="431" type="line"/>
      <point x="40" y="420" type="line"/>
      <point x="40" y="165" type="line" smooth="yes"/>
      <point x="40" y="45"/>
      <point x="128" y="-10"/>
      <point x="250" y="-10" type="curve" smooth="yes"/>
      <point x="283" y="-10"/>
      <point x="315" y="-4"/>
      <point x="335" y="4" type="curve"/>
      <point x="425" y="109" type="line"/>
      <point x="425" y="274" type="line" smooth="yes"/>
      <point x="425" y="384"/>
      <point x="373" y="439"/>
      <point x="283" y="439" type="curve" smooth="yes"/>
      <point x="264" y="439"/>
      <point x="245" y="437"/>
      <point x="233" y="434" type="curve"/>
      <point x="166" y="348" type="line"/>
      <point x="166" y="299" type="line"/>
      <point x="184" y="309"/>
      <point x="214" y="314"/>
      <point x="232" y="314" type="curve" smooth="yes"/>
      <point x="263" y="314"/>
      <point x="285" y="295"/>
      <point x="285" y="241" type="curve" smooth="yes"/>
      <point x="285" y="101" type="line"/>
      <point x="301" y="127" type="line"/>
      <point x="290" y="117"/>
      <point x="273" y="115"/>
      <point x="248" y="115" type="curve" smooth="yes"/>
      <point x="201" y="115"/>
      <point x="180" y="138"/>
      <point x="180" y="188" type="curve" smooth="yes"/>
    </contour>
    <component base="_part.tailFiguresOld" xScale="-1" yScale="-1" xOffset="444" yOffset="560"/>
  </outline>
</glyph>
<glyph name="two.lf" format="2">
  <advance width="465"/>
  <outline>
    <contour>
      <point x="164" y="111" type="line"/>
      <point x="266" y="216"/>
      <point x="425" y="349"/>
      <point x="425" y="488" type="curve" smooth="yes"/>
      <point x="425" y="616"/>
      <point x="363" y="690"/>
      <point x="225" y="690" type="curve" smooth="yes"/>
      <point x="177" y="690"/>
      <point x="135" y="685"/>
      <point x="98" y="678" type="curve"/>
      <point x="20" y="614" type="line"/>
      <point x="35" y="454" type="line"/>
      <point x="140" y="454" type="line"/>
      <point x="153" y="561" type="line"/>
      <point x="166" y="563"/>
      <point x="184" y="564"/>
      <point x="197" y="564" type="curve" smooth="yes"/>
      <point x="249" y="564"/>
      <point x="280" y="536"/>
      <point x="280" y="477" type="curve" smooth="yes"/>
      <point x="280" y="361"/>
      <point x="153" y="238"/>
      <point x="20" y="94" type="curve"/>
      <point x="39" y="0" type="line"/>
      <point x="415" y="0" type="line"/>
      <point x="445" y="30" type="line"/>
      <point x="445" y="120" type="line"/>
    </contour>
  </outline>
</glyph>
<glyph name="two.osf" format="2">
  <advance width="465"/>
  <outline>
    <contour>
      <point x="229" y="112" type="line"/>
      <point x="316" y="184"/>
      <point x="425" y="277"/>
      <point x="425" y="396" type="curve" smooth="yes"/>
      <point x="425" y="511"/>
      <point x="345" y="570"/>
      <point x="230" y="570" type="curve" smooth="yes"/>
      <point x="182" y="570"/>
      <point x="135" y="565"/>
      <point x="98" y="558" type="curve"/>
      <point x="20" y="494" type="line"/>
      <point x="45" y="334" type="line"/>
      <point x="135" y="334" type="line"/>
      <point x="159" y="442" type="line"/>
      <point x="170" y="443"/>
      <point x="192" y="444"/>
      <point x="203" y="444" type="curve" smooth="yes"/>
      <point x="250" y="444"/>
      <point x="280" y="415"/>
      <point x="280" y="369" type="curve" smooth="yes"/>
      <point x="280" y="264"/>
      <point x="162" y="177"/>
      <point x="20" y="74" type="curve"/>
      <point x="39" y="0" type="line"/>
      <point x="420" y="0" type="line"/>
      <point x="450" y="30" type="line"/>
      <point x="450" y="120" type="line"/>
    </contour>
  </outline>
</glyph>
<glyph name="u.ss01" format="2">
  <advance width="570"/>
  <outline>
    <contour>
      <point x="205" y="-10" type="curve" smooth="yes"/>
      <point x="246" y="-10"/>
      <point x="274" y="0"/>
      <point x="298" y="9" type="curve"/>
      <point x="357" y="116" type="line"/>
      <point x="346" y="156" type="line"/>
      <point x="326" y="143"/>
      <point x="302" y="137"/>
      <point x="276" y="137" type="curve" smooth="yes"/>
      <point x="257" y="137"/>
      <point x="242" y="140"/>
      <point x="225" y="146" type="curve"/>
      <point x="225" y="519" type="line"/>
      <point x="195" y="549" type="line"/>
      <point x="15" y="510" type="line"/>
      <point x="15" y="445" type="line"/>
      <point x="65" y="415" type="line"/>
      <point x="65" y="158" type="line" smooth="yes"/>
      <point x="65" y="43"/>
      <point x="120" y="-10"/>
    </contour>
    <contour>
      <point x="425" y="-10" type="curve"/>
      <point x="555" y="27" type="line"/>
      <point x="555" y="97" type="line"/>
      <point x="495" y="117" type="line"/>
      <point x="495" y="510" type="line"/>
      <point x="465" y="540" type="line"/>
      <point x="335" y="530" type="line"/>
      <point x="335" y="121" type="line"/>
      <point x="335" y="55"/>
      <point x="366" y="13"/>
    </contour>
  </outline>
</glyph>
<glyph name="zero.lf" format="2">
  <advance width="465"/>
  <outline>
    <contour>
      <point x="250" y="-10" type="curve" smooth="yes"/>
      <point x="283" y="-10"/>
      <point x="315" y="-4"/>
      <point x="335" y="4" type="curve"/>
      <point x="425" y="109" type="line"/>
      <point x="425" y="525" type="line" smooth="yes"/>
      <point x="425" y="635"/>
      <point x="355" y="690"/>
      <point x="231" y="690" type="curve" smooth="yes"/>
      <point x="192" y="690"/>
      <point x="152" y="683"/>
      <point x="130" y="677" type="curve"/>
      <point x="40" y="572" type="line"/>
      <point x="40" y="165" type="line" smooth="yes"/>
      <point x="40" y="45"/>
      <point x="128" y="-10"/>
    </contour>
    <contour>
      <point x="285" y="101" type="line"/>
      <point x="301" y="127" type="line"/>
      <point x="290" y="117"/>
      <point x="273" y="115"/>
      <point x="248" y="115" type="curve" smooth="yes"/>
      <point x="201" y="115"/>
      <point x="180" y="138"/>
      <point x="180" y="188" type="curve" smooth="yes"/>
      <point x="180" y="579" type="line"/>
      <point x="164" y="550" type="line"/>
      <point x="173" y="560"/>
      <point x="203" y="565"/>
      <point x="218" y="565" type="curve" smooth="yes"/>
      <point x="266" y="565"/>
      <point x="285" y="553"/>
      <point x="285" y="492" type="curve" smooth="yes"/>
    </contour>
  </outline>
</glyph>
<glyph name="zero.osf" format="2">
  <advance width="465"/>
  <outline>
    <contour>
      <point x="250" y="-10" type="curve" smooth="yes"/>
      <point x="283" y="-10"/>
      <point x="315" y="-4"/>
      <point x="335" y="4" type="curve"/>
      <point x="425" y="109" type="line"/>
      <point x="425" y="405" type="line" smooth="yes"/>
      <point x="425" y="515"/>
      <point x="355" y="570"/>
      <point x="231" y="570" type="curve" smooth="yes"/>
      <point x="192" y="570"/>
      <point x="152" y="563"/>
      <point x="130" y="557" type="curve"/>
      <point x="40" y="452" type="line"/>
      <point x="40" y="165" type="line" smooth="yes"/>
      <point x="40" y="45"/>
      <point x="128" y="-10"/>
    </contour>
    <contour>
      <point x="285" y="101" type="line"/>
      <point x="301" y="127" type="line"/>
      <point x="290" y="117"/>
      <point x="273" y="115"/>
      <point x="248" y="115" type="curve" smooth="yes"/>
      <point x="201" y="115"/>
      <point x="180" y="138"/>
      <point x="180" y="188" type="curve" smooth="yes"/>
      <point x="180" y="459" type="line"/>
      <point x="164" y="430" type="line"/>
      <point x="173" y="440"/>
      <point x="203" y="445"/>
      <point x="218" y="445" type="curve" smooth="yes"/>
      <point x="266" y="445"/>
      <point x="285" y="433"/>
      <point x="285" y="372" type="curve" smooth="yes"/>
    </contour>
  </outline>
</glyph>
